<svg width="32" height="15" viewBox="0 0 32 15" fill="none" xmlns="http://www.w3.org/2000/svg">
<path d="M1 6.36377C0.447715 6.36377 0 6.81148 0 7.36377C0 7.91605 0.447715 8.36377 1 8.36377V7.36377V6.36377ZM31.7071 8.07088C32.0976 7.68035 32.0976 7.04719 31.7071 6.65666L25.3431 0.292702C24.9526 -0.0978227 24.3195 -0.0978227 23.9289 0.292702C23.5384 0.683226 23.5384 1.31639 23.9289 1.70692L29.5858 7.36377L23.9289 13.0206C23.5384 13.4111 23.5384 14.0443 23.9289 14.4348C24.3195 14.8254 24.9526 14.8254 25.3431 14.4348L31.7071 8.07088ZM1 7.36377V8.36377L31 8.36377V7.36377V6.36377L1 6.36377V7.36377Z" fill="url(#paint0_linear_164_1181)"/>
<defs>
<linearGradient id="paint0_linear_164_1181" x1="16" y1="7.36377" x2="16" y2="8.36377" gradientUnits="userSpaceOnUse">
<stop stop-color="#56ABEE"/>
<stop offset="1" stop-color="#3994DB"/>
</linearGradient>
</defs>
</svg>
