<svg width="166" height="43" viewBox="0 0 166 43" fill="none" xmlns="http://www.w3.org/2000/svg">
<path d="M4.75438 25.0002H0.599609L6.93027 6.66185H11.9268L18.2485 25.0002H14.0937L9.50014 10.8525H9.35687L4.75438 25.0002ZM4.49471 17.792H14.3086V20.8186H4.49471V17.792ZM31.4829 11.2465L26.6744 25.0002H22.3764L17.568 11.2465H21.5974L24.4538 21.0872H24.597L27.4445 11.2465H31.4829ZM40.7505 11.2465V14.1118H32.4678V11.2465H40.7505ZM34.3482 7.95126H38.1627V20.7738C38.1627 21.126 38.2165 21.4006 38.3239 21.5976C38.4314 21.7886 38.5806 21.9229 38.7716 22.0005C38.9686 22.0781 39.1955 22.1169 39.4522 22.1169C39.6312 22.1169 39.8103 22.102 39.9894 22.0722C40.1685 22.0363 40.3058 22.0095 40.4013 21.9916L41.0012 24.8301C40.8102 24.8898 40.5416 24.9584 40.1954 25.036C39.8491 25.1196 39.4283 25.1703 38.9328 25.1882C38.0135 25.2241 37.2076 25.1017 36.5152 24.8211C35.8287 24.5405 35.2944 24.1048 34.9124 23.5138C34.5303 22.9228 34.3423 22.1766 34.3482 21.2752V7.95126ZM49.3018 25.2688C47.911 25.2688 46.7081 24.9733 45.6933 24.3824C44.6844 23.7854 43.9054 22.9556 43.3562 21.8931C42.807 20.8245 42.5324 19.5859 42.5324 18.1771C42.5324 16.7563 42.807 15.5147 43.3562 14.4521C43.9054 13.3835 44.6844 12.5538 45.6933 11.9628C46.7081 11.3658 47.911 11.0674 49.3018 11.0674C50.6927 11.0674 51.8926 11.3658 52.9015 11.9628C53.9163 12.5538 54.6983 13.3835 55.2475 14.4521C55.7967 15.5147 56.0713 16.7563 56.0713 18.1771C56.0713 19.5859 55.7967 20.8245 55.2475 21.8931C54.6983 22.9556 53.9163 23.7854 52.9015 24.3824C51.8926 24.9733 50.6927 25.2688 49.3018 25.2688ZM49.3198 22.3139C49.9525 22.3139 50.4808 22.1348 50.9047 21.7767C51.3285 21.4125 51.6479 20.9171 51.8628 20.2903C52.0836 19.6635 52.1941 18.9501 52.1941 18.1502C52.1941 17.3503 52.0836 16.6369 51.8628 16.0101C51.6479 15.3833 51.3285 14.8879 50.9047 14.5237C50.4808 14.1596 49.9525 13.9775 49.3198 13.9775C48.681 13.9775 48.1438 14.1596 47.708 14.5237C47.2782 14.8879 46.9528 15.3833 46.732 16.0101C46.5171 16.6369 46.4096 17.3503 46.4096 18.1502C46.4096 18.9501 46.5171 19.6635 46.732 20.2903C46.9528 20.9171 47.2782 21.4125 47.708 21.7767C48.1438 22.1348 48.681 22.3139 49.3198 22.3139ZM133.817 6.66185V25.0002H129.94V10.3421H129.832L125.633 12.9746V9.53617L130.173 6.66185H133.817ZM146.154 6.66185V25.0002H142.276V10.3421H142.169L137.969 12.9746V9.53617L142.509 6.66185H146.154ZM157.55 25.2509C156.607 25.2449 155.697 25.0868 154.819 24.7763C153.948 24.4659 153.166 23.9615 152.473 23.2631C151.781 22.5646 151.231 21.6394 150.826 20.4873C150.426 19.3351 150.226 17.9204 150.226 16.2429C150.232 14.7028 150.408 13.3268 150.754 12.115C151.106 10.8972 151.608 9.86449 152.258 9.01682C152.915 8.16915 153.7 7.52444 154.613 7.0827C155.527 6.63499 156.55 6.41113 157.684 6.41113C158.908 6.41113 159.989 6.64991 160.926 7.12747C161.863 7.59906 162.615 8.24078 163.182 9.05264C163.755 9.86449 164.102 10.7749 164.221 11.7837H160.398C160.248 11.145 159.935 10.6435 159.457 10.2794C158.98 9.91523 158.389 9.73316 157.684 9.73316C156.491 9.73316 155.583 10.2525 154.962 11.2912C154.348 12.3299 154.034 13.7417 154.022 15.5266H154.148C154.422 14.9834 154.792 14.5207 155.258 14.1387C155.729 13.7507 156.264 13.4552 156.861 13.2522C157.464 13.0433 158.099 12.9388 158.768 12.9388C159.854 12.9388 160.821 13.1955 161.669 13.7089C162.517 14.2163 163.185 14.9147 163.675 15.8042C164.164 16.6936 164.409 17.7114 164.409 18.8576C164.409 20.0992 164.12 21.2036 163.541 22.1707C162.967 23.1377 162.165 23.8958 161.132 24.445C160.105 24.9883 158.911 25.2569 157.55 25.2509ZM157.532 22.2065C158.129 22.2065 158.663 22.0632 159.135 21.7767C159.607 21.4901 159.977 21.1021 160.245 20.6126C160.514 20.1231 160.648 19.5739 160.648 18.965C160.648 18.3561 160.514 17.8099 160.245 17.3264C159.983 16.8429 159.619 16.4578 159.153 16.1713C158.687 15.8848 158.156 15.7415 157.559 15.7415C157.111 15.7415 156.697 15.8251 156.314 15.9922C155.938 16.1594 155.607 16.3922 155.321 16.6906C155.04 16.9891 154.819 17.3354 154.658 17.7293C154.497 18.1174 154.416 18.5322 154.416 18.974C154.416 19.565 154.55 20.1052 154.819 20.5947C155.094 21.0842 155.464 21.4752 155.929 21.7677C156.401 22.0602 156.935 22.2065 157.532 22.2065Z" fill="white"/>
<path d="M58.4805 25.0004V22.726L65.2141 14.3896V14.2911H58.7133V11.2467H69.8076V13.727L63.4859 21.8575V21.956H70.0404V25.0004H58.4805ZM76.8792 25.2601C76.0017 25.2601 75.2197 25.1079 74.5332 24.8034C73.8467 24.493 73.3035 24.0363 72.9035 23.4334C72.5095 22.8245 72.3125 22.0664 72.3125 21.159C72.3125 20.3949 72.4528 19.7532 72.7334 19.2339C73.014 18.7145 73.396 18.2966 73.8795 17.9803C74.3631 17.6639 74.9123 17.4251 75.5271 17.2639C76.148 17.1027 76.7986 16.9893 77.4792 16.9237C78.2791 16.8401 78.9238 16.7625 79.4133 16.6908C79.9028 16.6132 80.258 16.4998 80.4788 16.3506C80.6997 16.2013 80.8101 15.9805 80.8101 15.688V15.6342C80.8101 15.0671 80.6311 14.6284 80.2729 14.318C79.9207 14.0076 79.4192 13.8523 78.7686 13.8523C78.0821 13.8523 77.5359 14.0046 77.1299 14.309C76.724 14.6075 76.4554 14.9836 76.3241 15.4373L72.7961 15.1507C72.9752 14.315 73.3274 13.5927 73.8527 12.9838C74.378 12.3689 75.0555 11.8973 75.8853 11.569C76.721 11.2347 77.6881 11.0676 78.7865 11.0676C79.5506 11.0676 80.2818 11.1571 80.9803 11.3362C81.6847 11.5153 82.3085 11.7929 82.8517 12.1689C83.4009 12.545 83.8337 13.0286 84.1501 13.6195C84.4665 14.2045 84.6247 14.906 84.6247 15.7238V25.0004H81.0071V23.0931H80.8997C80.6788 23.5229 80.3833 23.902 80.0132 24.2303C79.6431 24.5527 79.1984 24.8064 78.679 24.9914C78.1597 25.1705 77.5597 25.2601 76.8792 25.2601ZM77.9716 22.6275C78.5328 22.6275 79.0282 22.5171 79.458 22.2962C79.8878 22.0694 80.2251 21.7649 80.4699 21.3829C80.7146 21.0008 80.837 20.568 80.837 20.0845V18.625C80.7176 18.7026 80.5534 18.7742 80.3445 18.8399C80.1416 18.8996 79.9117 18.9563 79.655 19.01C79.3984 19.0578 79.1417 19.1025 78.885 19.1443C78.6283 19.1801 78.3955 19.213 78.1865 19.2428C77.7388 19.3085 77.3478 19.4129 77.0135 19.5562C76.6792 19.6995 76.4196 19.8935 76.2345 20.1382C76.0495 20.377 75.9569 20.6755 75.9569 21.0337C75.9569 21.553 76.145 21.95 76.521 22.2246C76.9031 22.4932 77.3866 22.6275 77.9716 22.6275ZM91.3986 6.66211V25.0004H87.584V6.66211H91.3986ZM100.668 25.269C99.2776 25.269 98.0747 24.9735 97.0599 24.3826C96.051 23.7856 95.272 22.9558 94.7228 21.8933C94.1736 20.8247 93.899 19.5861 93.899 18.1773C93.899 16.7565 94.1736 15.5149 94.7228 14.4523C95.272 13.3837 96.051 12.554 97.0599 11.963C98.0747 11.366 99.2776 11.0676 100.668 11.0676C102.059 11.0676 103.259 11.366 104.268 11.963C105.283 12.554 106.065 13.3837 106.614 14.4523C107.163 15.5149 107.438 16.7565 107.438 18.1773C107.438 19.5861 107.163 20.8247 106.614 21.8933C106.065 22.9558 105.283 23.7856 104.268 24.3826C103.259 24.9735 102.059 25.269 100.668 25.269ZM100.686 22.3141C101.319 22.3141 101.847 22.135 102.271 21.7769C102.695 21.4127 103.014 20.9173 103.229 20.2905C103.45 19.6637 103.56 18.9503 103.56 18.1504C103.56 17.3505 103.45 16.6371 103.229 16.0103C103.014 15.3835 102.695 14.8881 102.271 14.5239C101.847 14.1598 101.319 13.9777 100.686 13.9777C100.047 13.9777 99.5104 14.1598 99.0746 14.5239C98.6448 14.8881 98.3194 15.3835 98.0986 16.0103C97.8837 16.6371 97.7762 17.3505 97.7762 18.1504C97.7762 18.9503 97.8837 19.6637 98.0986 20.2905C98.3194 20.9173 98.6448 21.4127 99.0746 21.7769C99.5104 22.135 100.047 22.3141 100.686 22.3141ZM116.114 30.4446C114.879 30.4446 113.819 30.2745 112.936 29.9342C112.058 29.5999 111.36 29.1432 110.84 28.5642C110.321 27.9852 109.984 27.3345 109.828 26.6122L113.356 26.1376C113.464 26.4122 113.634 26.6689 113.867 26.9077C114.1 27.1464 114.407 27.3375 114.789 27.4807C115.177 27.63 115.649 27.7046 116.204 27.7046C117.034 27.7046 117.717 27.5016 118.254 27.0957C118.798 26.6957 119.069 26.0242 119.069 25.081V22.5648H118.908C118.741 22.9469 118.49 23.308 118.156 23.6483C117.822 23.9886 117.392 24.2662 116.866 24.4811C116.341 24.696 115.714 24.8034 114.986 24.8034C113.953 24.8034 113.013 24.5646 112.166 24.0871C111.324 23.6035 110.652 22.8663 110.151 21.8754C109.655 20.8785 109.408 19.6189 109.408 18.0967C109.408 16.5386 109.661 15.2373 110.169 14.1926C110.676 13.1479 111.351 12.3659 112.192 11.8466C113.04 11.3272 113.968 11.0676 114.977 11.0676C115.747 11.0676 116.392 11.1989 116.911 11.4616C117.431 11.7183 117.848 12.0406 118.165 12.4286C118.487 12.8107 118.735 13.1867 118.908 13.5569H119.051V11.2467H122.839V25.1347C122.839 26.3047 122.552 27.2837 121.979 28.0717C121.406 28.8597 120.612 29.4507 119.598 29.8447C118.589 30.2446 117.428 30.4446 116.114 30.4446ZM116.195 21.938C116.81 21.938 117.329 21.7858 117.753 21.4814C118.183 21.171 118.511 20.7292 118.738 20.1561C118.971 19.5771 119.087 18.8846 119.087 18.0788C119.087 17.2729 118.974 16.5744 118.747 15.9835C118.52 15.3865 118.192 14.9239 117.762 14.5956C117.332 14.2672 116.81 14.1031 116.195 14.1031C115.568 14.1031 115.04 14.2732 114.61 14.6135C114.18 14.9478 113.855 15.4134 113.634 16.0103C113.413 16.6073 113.303 17.2968 113.303 18.0788C113.303 18.8727 113.413 19.5592 113.634 20.1382C113.861 20.7113 114.186 21.156 114.61 21.4724C115.04 21.7828 115.568 21.938 116.195 21.938Z" fill="#3F96DB"/>
<path d="M0.255737 42.7615V40.2189H0.724487C0.885472 40.0721 1.03699 39.8649 1.17904 39.5974C1.32345 39.3275 1.44537 38.9677 1.5448 38.5179C1.6466 38.0657 1.71408 37.4916 1.74722 36.7956L1.90347 33.7274H6.22165V40.2189H7.05972V42.7473H6.22165V41.0001H1.09381V42.7615H0.255737ZM1.77563 40.2189H5.38358V34.5086H2.69892L2.58529 36.7956C2.55688 37.3259 2.50716 37.8064 2.43614 38.2373C2.36512 38.6658 2.27397 39.0458 2.1627 39.3772C2.05143 39.7063 1.92241 39.9868 1.77563 40.2189ZM10.5638 41.1137C10.0383 41.1137 9.58487 40.9977 9.20372 40.7657C8.82493 40.5313 8.53255 40.2046 8.32659 39.7856C8.12299 39.3642 8.02118 38.8742 8.02118 38.3154C8.02118 37.7567 8.12299 37.2643 8.32659 36.8382C8.53255 36.4097 8.81901 36.0759 9.18596 35.8367C9.55527 35.5953 9.98615 35.4745 10.4786 35.4745C10.7627 35.4745 11.0432 35.5219 11.3202 35.6166C11.5972 35.7113 11.8494 35.8652 12.0766 36.0782C12.3039 36.2889 12.485 36.5683 12.62 36.9163C12.7549 37.2643 12.8224 37.6928 12.8224 38.2018V38.5569H8.61777V37.8325H11.9701C11.9701 37.5247 11.9085 37.2501 11.7854 37.0086C11.6647 36.7671 11.4919 36.5766 11.267 36.4369C11.0444 36.2972 10.7816 36.2274 10.4786 36.2274C10.1448 36.2274 9.85594 36.3102 9.61209 36.476C9.37062 36.6393 9.18478 36.8524 9.05457 37.1152C8.92436 37.3779 8.85925 37.6597 8.85925 37.9603V38.4433C8.85925 38.8552 8.93028 39.2044 9.07233 39.4909C9.21674 39.775 9.41679 39.9916 9.67247 40.1407C9.92815 40.2875 10.2253 40.3609 10.5638 40.3609C10.784 40.3609 10.9829 40.3301 11.1604 40.2686C11.3404 40.2046 11.4954 40.1099 11.6256 39.9845C11.7558 39.8566 11.8565 39.698 11.9275 39.5086L12.7371 39.7359C12.6519 40.0105 12.5087 40.252 12.3075 40.4603C12.1062 40.6663 11.8576 40.8273 11.5617 40.9433C11.2658 41.0569 10.9332 41.1137 10.5638 41.1137ZM17.7478 37.8893V38.6706H14.7364V37.8893H17.7478ZM14.9353 35.5456V41.0001H14.0972V35.5456H14.9353ZM18.387 35.5456V41.0001H17.5489V35.5456H18.387ZM20.642 37.52H22.2045C22.8437 37.52 23.3325 37.6822 23.6711 38.0065C24.0096 38.3308 24.1789 38.7416 24.1789 39.2387C24.1789 39.5654 24.1031 39.8626 23.9516 40.1301C23.8001 40.3952 23.5776 40.6071 23.284 40.7657C22.9905 40.922 22.6306 41.0001 22.2045 41.0001H19.9175V35.5456H20.7556V40.2189H22.2045C22.5359 40.2189 22.8082 40.1313 23.0212 39.9561C23.2343 39.7809 23.3408 39.556 23.3408 39.2813C23.3408 38.9925 23.2343 38.757 23.0212 38.5747C22.8082 38.3924 22.5359 38.3012 22.2045 38.3012H20.642V37.52ZM28.8211 35.5456V36.3268H26.2927V41.0001H25.4546V35.5456H28.8211ZM30.8826 39.7643L33.5104 35.5456H34.4763V41.0001H33.6382V36.7813L31.0246 41.0001H30.0445V35.5456H30.8826V39.7643ZM38.8238 41.0001V35.5456H43.1136V41.0001H42.2755V36.3268H39.6619V41.0001H38.8238ZM46.86 41.1137C46.3676 41.1137 45.9355 40.9965 45.5638 40.7622C45.1945 40.5278 44.9057 40.1999 44.6974 39.7785C44.4914 39.3571 44.3884 38.8647 44.3884 38.3012C44.3884 37.7331 44.4914 37.2371 44.6974 36.8133C44.9057 36.3895 45.1945 36.0605 45.5638 35.8261C45.9355 35.5917 46.3676 35.4745 46.86 35.4745C47.3524 35.4745 47.7833 35.5917 48.1526 35.8261C48.5243 36.0605 48.8131 36.3895 49.0191 36.8133C49.2274 37.2371 49.3316 37.7331 49.3316 38.3012C49.3316 38.8647 49.2274 39.3571 49.0191 39.7785C48.8131 40.1999 48.5243 40.5278 48.1526 40.7622C47.7833 40.9965 47.3524 41.1137 46.86 41.1137ZM46.86 40.3609C47.2341 40.3609 47.5418 40.265 47.7833 40.0733C48.0248 39.8815 48.2035 39.6294 48.3195 39.3169C48.4355 39.0044 48.4935 38.6658 48.4935 38.3012C48.4935 37.9367 48.4355 37.5969 48.3195 37.2821C48.2035 36.9672 48.0248 36.7127 47.7833 36.5186C47.5418 36.3244 47.2341 36.2274 46.86 36.2274C46.486 36.2274 46.1782 36.3244 45.9367 36.5186C45.6952 36.7127 45.5165 36.9672 45.4005 37.2821C45.2845 37.5969 45.2265 37.9367 45.2265 38.3012C45.2265 38.6658 45.2845 39.0044 45.4005 39.3169C45.5165 39.6294 45.6952 39.8815 45.9367 40.0733C46.1782 40.265 46.486 40.3609 46.86 40.3609ZM50.0285 42.5626V40.2189H50.4831C50.5943 40.1028 50.6902 39.9774 50.7707 39.8424C50.8512 39.7075 50.921 39.5477 50.9802 39.363C51.0418 39.176 51.0939 38.9487 51.1365 38.6812C51.1791 38.4113 51.217 38.0858 51.2501 37.7046L51.4348 35.5456H54.9007V40.2189H55.7387V42.5626H54.9007V41.0001H50.8666V42.5626H50.0285ZM51.4348 40.2189H54.0626V36.3268H52.216L52.074 37.7046C52.0148 38.2752 51.9414 38.7735 51.8538 39.1997C51.7662 39.6258 51.6265 39.9655 51.4348 40.2189ZM59.3227 39.6081H60.2176C60.2365 39.8543 60.3478 40.0413 60.5514 40.1691C60.7574 40.297 61.0249 40.3609 61.354 40.3609C61.6901 40.3609 61.9778 40.2922 62.2169 40.1549C62.456 40.0153 62.5756 39.7903 62.5756 39.4802C62.5756 39.2979 62.5306 39.1393 62.4406 39.0044C62.3507 38.8671 62.224 38.7605 62.0606 38.6848C61.8973 38.609 61.7043 38.5711 61.4818 38.5711H60.5443V37.8183H61.4818C61.8156 37.8183 62.0618 37.7425 62.2204 37.591C62.3814 37.4395 62.4619 37.2501 62.4619 37.0228C62.4619 36.779 62.3755 36.5837 62.2027 36.4369C62.0299 36.2877 61.7848 36.2132 61.4676 36.2132C61.148 36.2132 60.8817 36.2854 60.6686 36.4298C60.4555 36.5718 60.3431 36.7553 60.3312 36.9802H59.4506C59.46 36.6867 59.55 36.4274 59.7204 36.2025C59.8909 35.9752 60.1229 35.7977 60.4165 35.6698C60.71 35.5396 61.0462 35.4745 61.425 35.4745C61.8085 35.4745 62.1411 35.542 62.4229 35.6769C62.707 35.8095 62.9259 35.9906 63.0798 36.2203C63.2361 36.4475 63.3142 36.7056 63.3142 36.9944C63.3142 37.3022 63.2278 37.5508 63.055 37.7402C62.8821 37.9296 62.6655 38.0645 62.4051 38.145V38.2018C62.6111 38.216 62.7898 38.2823 62.9413 38.4007C63.0952 38.5167 63.2148 38.6694 63.3 38.8588C63.3852 39.0458 63.4278 39.2529 63.4278 39.4802C63.4278 39.8117 63.3391 40.1005 63.1615 40.3467C62.9839 40.5905 62.7401 40.7799 62.43 40.9149C62.1198 41.0474 61.7659 41.1137 61.3682 41.1137C60.9823 41.1137 60.6366 41.051 60.3312 40.9255C60.0258 40.7977 59.7832 40.6213 59.6033 40.3964C59.4257 40.1691 59.3322 39.9063 59.3227 39.6081ZM66.2101 41.1279C65.8645 41.1279 65.5508 41.0628 65.2691 40.9326C64.9874 40.8001 64.7637 40.6095 64.5979 40.3609C64.4322 40.1099 64.3493 39.8069 64.3493 39.4518C64.3493 39.1393 64.4109 38.886 64.534 38.6919C64.6571 38.4954 64.8216 38.3415 65.0275 38.2302C65.2336 38.1189 65.4609 38.0361 65.7094 37.9816C65.9604 37.9248 66.2124 37.8798 66.4658 37.8467C66.7972 37.8041 67.0659 37.7721 67.2719 37.7508C67.4802 37.7271 67.6318 37.6881 67.7265 37.6336C67.8235 37.5792 67.8721 37.4845 67.8721 37.3495V37.3211C67.8721 36.9707 67.7762 36.6985 67.5844 36.5044C67.395 36.3102 67.1074 36.2132 66.7215 36.2132C66.3214 36.2132 66.0077 36.3008 65.7805 36.476C65.5532 36.6511 65.3934 36.8382 65.3011 37.037L64.5056 36.7529C64.6476 36.4215 64.837 36.1635 65.0738 35.9788C65.3129 35.7918 65.5732 35.6616 65.8549 35.5882C66.1391 35.5124 66.4185 35.4745 66.6931 35.4745C66.8683 35.4745 67.0695 35.4958 67.2968 35.5385C67.5264 35.5787 67.7478 35.6627 67.9609 35.7906C68.1763 35.9184 68.355 36.1114 68.4971 36.3694C68.6391 36.6275 68.7101 36.9731 68.7101 37.4063V41.0001H67.8721V40.2615H67.8295C67.7726 40.3798 67.678 40.5065 67.5454 40.6414C67.4128 40.7764 67.2364 40.8912 67.0163 40.9859C66.7961 41.0806 66.5274 41.1279 66.2101 41.1279ZM66.338 40.3751C66.6693 40.3751 66.9488 40.31 67.1761 40.1798C67.4057 40.0496 67.5785 39.8815 67.6945 39.6755C67.8129 39.4696 67.8721 39.2529 67.8721 39.0257V38.2586C67.8366 38.3012 67.7584 38.3403 67.6377 38.3758C67.5193 38.409 67.382 38.4385 67.2258 38.4646C67.0719 38.4883 66.9215 38.5096 66.7747 38.5285C66.6303 38.5451 66.5132 38.5593 66.4232 38.5711C66.2054 38.5995 66.0018 38.6457 65.8124 38.7096C65.6254 38.7712 65.4739 38.8647 65.3579 38.9902C65.2442 39.1133 65.1874 39.2813 65.1874 39.4944C65.1874 39.7856 65.2951 40.0058 65.5106 40.1549C65.7283 40.3017 66.0042 40.3751 66.338 40.3751ZM69.7568 41.0001V40.2189H69.9557C70.119 40.2189 70.2551 40.1869 70.3641 40.123C70.473 40.0567 70.5606 39.9419 70.6269 39.7785C70.6955 39.6128 70.7476 39.3831 70.7831 39.0896C70.821 38.7937 70.8482 38.4172 70.8648 37.9603L70.9642 35.5456H74.6006V41.0001H73.7625V36.3268H71.7597L71.6745 38.2728C71.6555 38.7203 71.6152 39.1144 71.5536 39.4554C71.4945 39.7939 71.4034 40.078 71.2803 40.3076C71.1595 40.5373 70.9986 40.7101 70.7973 40.8261C70.5961 40.9421 70.344 41.0001 70.0409 41.0001H69.7568ZM78.354 41.1137C77.8616 41.1137 77.4296 40.9965 77.058 40.7622C76.6887 40.5278 76.3997 40.1999 76.1915 39.7785C75.9855 39.3571 75.8826 38.8647 75.8826 38.3012C75.8826 37.7331 75.9855 37.2371 76.1915 36.8133C76.3997 36.3895 76.6887 36.0605 77.058 35.8261C77.4296 35.5917 77.8616 35.4745 78.354 35.4745C78.8465 35.4745 79.2774 35.5917 79.6468 35.8261C80.0183 36.0605 80.3073 36.3895 80.5132 36.8133C80.7215 37.2371 80.8257 37.7331 80.8257 38.3012C80.8257 38.8647 80.7215 39.3571 80.5132 39.7785C80.3073 40.1999 80.0183 40.5278 79.6468 40.7622C79.2774 40.9965 78.8465 41.1137 78.354 41.1137ZM78.354 40.3609C78.7281 40.3609 79.0359 40.265 79.2774 40.0733C79.5189 39.8815 79.6977 39.6294 79.8137 39.3169C79.9296 39.0044 79.9877 38.6658 79.9877 38.3012C79.9877 37.9367 79.9296 37.5969 79.8137 37.2821C79.6977 36.9672 79.5189 36.7127 79.2774 36.5186C79.0359 36.3244 78.7281 36.2274 78.354 36.2274C77.98 36.2274 77.6723 36.3244 77.4309 36.5186C77.1894 36.7127 77.0106 36.9672 76.8946 37.2821C76.7786 37.5969 76.7206 37.9367 76.7206 38.3012C76.7206 38.6658 76.7786 39.0044 76.8946 39.3169C77.0106 39.6294 77.1894 39.8815 77.4309 40.0733C77.6723 40.265 77.98 40.3609 78.354 40.3609ZM85.4715 35.5456V36.3268H82.9431V41.0001H82.1049V35.5456H85.4715ZM95.0614 33.7274V41.0001H94.1807V34.5086H90.5159V41.0001H89.6352V33.7274H95.0614ZM96.4401 34.5086V33.7274H101.895V34.5086H99.6077V41.0001H98.727V34.5086H96.4401ZM108.803 36.0001H107.923C107.871 35.7468 107.779 35.5242 107.649 35.3325C107.521 35.1407 107.365 34.9797 107.18 34.8495C106.998 34.717 106.796 34.6175 106.573 34.5512C106.351 34.4849 106.119 34.4518 105.877 34.4518C105.437 34.4518 105.038 34.5631 104.68 34.7856C104.325 35.0081 104.042 35.336 103.832 35.7693C103.623 36.2025 103.519 36.734 103.519 37.3637C103.519 37.9935 103.623 38.525 103.832 38.9582C104.042 39.3914 104.325 39.7193 104.68 39.9419C105.038 40.1644 105.437 40.2757 105.877 40.2757C106.119 40.2757 106.351 40.2425 106.573 40.1762C106.796 40.1099 106.998 40.0117 107.18 39.8815C107.365 39.7489 107.521 39.5867 107.649 39.395C107.779 39.2009 107.871 38.9783 107.923 38.7274H108.803C108.737 39.0991 108.616 39.4317 108.441 39.7252C108.266 40.0188 108.048 40.2686 107.788 40.4745C107.527 40.6781 107.235 40.8332 106.911 40.9397C106.589 41.0463 106.244 41.0995 105.877 41.0995C105.257 41.0995 104.705 40.948 104.222 40.645C103.739 40.342 103.359 39.9111 103.082 39.3524C102.805 38.7937 102.667 38.1308 102.667 37.3637C102.667 36.5967 102.805 35.9338 103.082 35.3751C103.359 34.8164 103.739 34.3855 104.222 34.0825C104.705 33.7795 105.257 33.6279 105.877 33.6279C106.244 33.6279 106.589 33.6812 106.911 33.7877C107.235 33.8943 107.527 34.0505 107.788 34.2565C108.048 34.4601 108.266 34.7087 108.441 35.0022C108.616 35.2934 108.737 35.626 108.803 36.0001ZM111.363 40.0058L111.306 40.3893C111.266 40.6592 111.204 40.948 111.121 41.2558C111.041 41.5635 110.957 41.8536 110.869 42.1258C110.782 42.3981 110.709 42.6147 110.653 42.7757H110.013C110.044 42.6242 110.084 42.4241 110.134 42.1755C110.184 41.9269 110.233 41.6488 110.283 41.341C110.335 41.0356 110.378 40.7231 110.411 40.4035L110.454 40.0058H111.363ZM117.333 41.1279C116.987 41.1279 116.674 41.0628 116.392 40.9326C116.11 40.8001 115.887 40.6095 115.721 40.3609C115.555 40.1099 115.472 39.8069 115.472 39.4518C115.472 39.1393 115.534 38.886 115.657 38.6919C115.78 38.4954 115.945 38.3415 116.151 38.2302C116.357 38.1189 116.584 38.0361 116.832 37.9816C117.083 37.9248 117.335 37.8798 117.589 37.8467C117.92 37.8041 118.189 37.7721 118.395 37.7508C118.603 37.7271 118.755 37.6881 118.849 37.6336C118.946 37.5792 118.995 37.4845 118.995 37.3495V37.3211C118.995 36.9707 118.899 36.6985 118.707 36.5044C118.518 36.3102 118.23 36.2132 117.844 36.2132C117.444 36.2132 117.131 36.3008 116.903 36.476C116.676 36.6511 116.516 36.8382 116.424 37.037L115.629 36.7529C115.771 36.4215 115.96 36.1635 116.197 35.9788C116.436 35.7918 116.696 35.6616 116.978 35.5882C117.262 35.5124 117.541 35.4745 117.816 35.4745C117.991 35.4745 118.192 35.4958 118.42 35.5385C118.649 35.5787 118.871 35.6627 119.084 35.7906C119.299 35.9184 119.478 36.1114 119.62 36.3694C119.762 36.6275 119.833 36.9731 119.833 37.4063V41.0001H118.995V40.2615H118.952C118.896 40.3798 118.801 40.5065 118.668 40.6414C118.536 40.7764 118.359 40.8912 118.139 40.9859C117.919 41.0806 117.65 41.1279 117.333 41.1279ZM117.461 40.3751C117.792 40.3751 118.072 40.31 118.299 40.1798C118.529 40.0496 118.701 39.8815 118.817 39.6755C118.936 39.4696 118.995 39.2529 118.995 39.0257V38.2586C118.96 38.3012 118.881 38.3403 118.761 38.3758C118.642 38.409 118.505 38.4385 118.349 38.4646C118.195 38.4883 118.045 38.5096 117.898 38.5285C117.753 38.5451 117.636 38.5593 117.546 38.5711C117.328 38.5995 117.125 38.6457 116.935 38.7096C116.748 38.7712 116.597 38.8647 116.481 38.9902C116.367 39.1133 116.31 39.2813 116.31 39.4944C116.31 39.7856 116.418 40.0058 116.634 40.1549C116.851 40.3017 117.127 40.3751 117.461 40.3751ZM121.363 41.0001V35.5456H123.593C124.18 35.5456 124.646 35.6781 124.992 35.9433C125.338 36.2084 125.51 36.5588 125.51 36.9944C125.51 37.3259 125.412 37.5827 125.216 37.765C125.019 37.9449 124.767 38.0669 124.459 38.1308C124.661 38.1592 124.856 38.2302 125.045 38.3439C125.237 38.4575 125.396 38.6137 125.521 38.8126C125.647 39.0091 125.709 39.2506 125.709 39.537C125.709 39.8164 125.638 40.0662 125.496 40.2863C125.354 40.5065 125.151 40.6805 124.885 40.8083C124.62 40.9362 124.303 41.0001 123.934 41.0001H121.363ZM122.158 40.2331H123.934C124.223 40.2331 124.449 40.1644 124.612 40.0271C124.775 39.8898 124.857 39.7028 124.857 39.466C124.857 39.1843 124.775 38.9629 124.612 38.8019C124.449 38.6386 124.223 38.5569 123.934 38.5569H122.158V40.2331ZM122.158 37.8325H123.593C123.818 37.8325 124.011 37.8017 124.172 37.7402C124.333 37.6762 124.456 37.5863 124.541 37.4703C124.629 37.3519 124.672 37.2122 124.672 37.0512C124.672 36.8216 124.577 36.6417 124.385 36.5115C124.193 36.3789 123.929 36.3126 123.593 36.3126H122.158V37.8325ZM126.665 36.3268V35.5456H131.097V36.3268H129.308V41.0001H128.469V36.3268H126.665ZM134.252 41.1137C133.76 41.1137 133.328 40.9965 132.956 40.7622C132.587 40.5278 132.298 40.1999 132.09 39.7785C131.884 39.3571 131.781 38.8647 131.781 38.3012C131.781 37.7331 131.884 37.2371 132.09 36.8133C132.298 36.3895 132.587 36.0605 132.956 35.8261C133.328 35.5917 133.76 35.4745 134.252 35.4745C134.745 35.4745 135.176 35.5917 135.545 35.8261C135.917 36.0605 136.206 36.3895 136.412 36.8133C136.62 37.2371 136.724 37.7331 136.724 38.3012C136.724 38.8647 136.62 39.3571 136.412 39.7785C136.206 40.1999 135.917 40.5278 135.545 40.7622C135.176 40.9965 134.745 41.1137 134.252 41.1137ZM134.252 40.3609C134.627 40.3609 134.934 40.265 135.176 40.0733C135.417 39.8815 135.596 39.6294 135.712 39.3169C135.828 39.0044 135.886 38.6658 135.886 38.3012C135.886 37.9367 135.828 37.5969 135.712 37.2821C135.596 36.9672 135.417 36.7127 135.176 36.5186C134.934 36.3244 134.627 36.2274 134.252 36.2274C133.878 36.2274 133.571 36.3244 133.329 36.5186C133.088 36.7127 132.909 36.9672 132.793 37.2821C132.677 37.5969 132.619 37.9367 132.619 38.3012C132.619 38.6658 132.677 39.0044 132.793 39.3169C132.909 39.6294 133.088 39.8815 133.329 40.0733C133.571 40.265 133.878 40.3609 134.252 40.3609Z" fill="white"/>
</svg>
