<svg width="80" height="21" viewBox="0 0 80 21" fill="none" xmlns="http://www.w3.org/2000/svg">
<path d="M2.29149 12.2093H0.289185L3.34011 3.25337H5.74806L8.79466 12.2093H6.79235L4.5786 5.29995H4.50955L2.29149 12.2093ZM2.16634 8.689H6.89592V10.1671H2.16634V8.689ZM15.1727 5.49237L12.8553 12.2093H10.784L8.46671 5.49237H10.4086L11.7852 10.2983H11.8542L13.2265 5.49237H15.1727ZM19.639 5.49237V6.8917H15.6473V5.49237H19.639ZM16.5536 3.88308H18.3919V10.1452C18.3919 10.3172 18.4178 10.4513 18.4696 10.5476C18.5214 10.6408 18.5933 10.7064 18.6853 10.7443C18.7803 10.7822 18.8896 10.8012 19.0133 10.8012C19.0996 10.8012 19.1859 10.7939 19.2722 10.7793C19.3585 10.7618 19.4247 10.7487 19.4707 10.74L19.7598 12.1262C19.6678 12.1554 19.5383 12.1889 19.3715 12.2268C19.2046 12.2676 19.0018 12.2924 18.763 12.3011C18.32 12.3186 17.9316 12.2589 17.5979 12.1218C17.267 11.9848 17.0096 11.772 16.8255 11.4834C16.6413 11.1947 16.5507 10.8303 16.5536 10.3901V3.88308ZM23.7601 12.3405C23.0898 12.3405 22.5101 12.1962 22.0211 11.9076C21.5349 11.616 21.1594 11.2108 20.8948 10.6919C20.6301 10.17 20.4977 9.5651 20.4977 8.87708C20.4977 8.1832 20.6301 7.57684 20.8948 7.05789C21.1594 6.53602 21.5349 6.13081 22.0211 5.84219C22.5101 5.55063 23.0898 5.4049 23.7601 5.4049C24.4304 5.4049 25.0087 5.55063 25.4949 5.84219C25.984 6.13081 26.3608 6.53602 26.6255 7.05789C26.8902 7.57684 27.0225 8.1832 27.0225 8.87708C27.0225 9.5651 26.8902 10.17 26.6255 10.6919C26.3608 11.2108 25.984 11.616 25.4949 11.9076C25.0087 12.1962 24.4304 12.3405 23.7601 12.3405ZM23.7688 10.8974C24.0737 10.8974 24.3283 10.8099 24.5326 10.635C24.7368 10.4572 24.8908 10.2152 24.9943 9.90911C25.1007 9.60299 25.154 9.25459 25.154 8.86394C25.154 8.47329 25.1007 8.12489 24.9943 7.81877C24.8908 7.51266 24.7368 7.27072 24.5326 7.09286C24.3283 6.91504 24.0737 6.82611 23.7688 6.82611C23.4609 6.82611 23.202 6.91504 22.992 7.09286C22.7849 7.27072 22.6281 7.51266 22.5217 7.81877C22.4181 8.12489 22.3663 8.47329 22.3663 8.86394C22.3663 9.25459 22.4181 9.60299 22.5217 9.90911C22.6281 10.2152 22.7849 10.4572 22.992 10.635C23.202 10.8099 23.4609 10.8974 23.7688 10.8974ZM64.4902 3.25337V12.2093H62.6217V5.05068H62.5697L60.5461 6.33632V4.6571L62.734 3.25337H64.4902ZM70.4357 3.25337V12.2093H68.5668V5.05068H68.5152L66.4911 6.33632V4.6571L68.6791 3.25337H70.4357ZM75.9278 12.3317C75.4733 12.3288 75.0348 12.2516 74.6116 12.0999C74.1919 11.9484 73.815 11.702 73.481 11.3609C73.1475 11.0198 72.8825 10.568 72.6873 10.0053C72.4945 9.44261 72.3981 8.75171 72.3981 7.93247C72.401 7.18033 72.4858 6.50833 72.6526 5.91652C72.8222 5.32178 73.0642 4.81745 73.3774 4.40347C73.694 3.98949 74.0724 3.67463 74.5124 3.4589C74.9528 3.24025 75.4458 3.13092 75.9924 3.13092C76.5822 3.13092 77.1032 3.24753 77.5548 3.48076C78.0063 3.71107 78.3687 4.02447 78.642 4.42096C78.9181 4.81745 79.0854 5.26205 79.1427 5.75472H77.3003C77.228 5.4428 77.0772 5.19788 76.8468 5.02006C76.6169 4.84222 76.3321 4.75331 75.9924 4.75331C75.4174 4.75331 74.9798 5.00692 74.6805 5.5142C74.3846 6.02147 74.2333 6.71095 74.2275 7.58265H74.2883C74.4203 7.31736 74.5986 7.09139 74.8232 6.90484C75.0502 6.71535 75.308 6.57103 75.5957 6.47189C75.8863 6.36987 76.1924 6.31884 76.5148 6.31884C77.0381 6.31884 77.5042 6.4442 77.9128 6.69493C78.3215 6.94273 78.6434 7.28381 78.8796 7.71822C79.1152 8.15258 79.2333 8.64964 79.2333 9.20941C79.2333 9.81578 79.094 10.3551 78.815 10.8274C78.5384 11.2997 78.1519 11.6699 77.654 11.9381C77.1591 12.2035 76.5837 12.3347 75.9278 12.3317ZM75.9191 10.8449C76.2068 10.8449 76.4642 10.7749 76.6916 10.635C76.9191 10.4951 77.0974 10.3056 77.2266 10.0665C77.3562 9.82745 77.4208 9.55924 77.4208 9.26187C77.4208 8.9645 77.3562 8.69775 77.2266 8.46162C77.1003 8.22549 76.9249 8.03742 76.7003 7.8975C76.4757 7.75758 76.2198 7.6876 75.9321 7.6876C75.7162 7.6876 75.5167 7.72843 75.3321 7.81003C75.1509 7.89169 74.9914 8.00538 74.8536 8.15111C74.7181 8.29689 74.6116 8.46601 74.534 8.65838C74.4565 8.84792 74.4174 9.0505 74.4174 9.26626C74.4174 9.55489 74.482 9.81871 74.6116 10.0578C74.7442 10.2968 74.9225 10.4878 75.1466 10.6306C75.374 10.7735 75.6314 10.8449 75.9191 10.8449Z" fill="#2C2C2C"/>
<path d="M28.1836 12.2093V11.0986L31.4287 7.02732V6.97922H28.2958V5.49242H33.6424V6.70373L30.5958 10.6744V10.7225H33.7546V12.2093H28.1836ZM37.0504 12.3362C36.6275 12.3362 36.2507 12.2618 35.9198 12.1131C35.589 11.9615 35.3272 11.7385 35.1344 11.4441C34.9446 11.1467 34.8496 10.7765 34.8496 10.3333C34.8496 9.96014 34.9172 9.64676 35.0525 9.39314C35.1877 9.13948 35.3718 8.93539 35.6048 8.78092C35.8379 8.6264 36.1025 8.50978 36.3988 8.43105C36.6981 8.35233 37.0116 8.29694 37.3396 8.26491C37.7251 8.22408 38.0358 8.18618 38.2717 8.15116C38.5076 8.11327 38.6788 8.05789 38.7852 7.98502C38.8916 7.91211 38.9448 7.80427 38.9448 7.66143V7.63515C38.9448 7.35819 38.8586 7.14395 38.686 6.99236C38.5162 6.84076 38.2745 6.76492 37.961 6.76492C37.6301 6.76492 37.3669 6.8393 37.1713 6.98796C36.9756 7.13374 36.8462 7.31742 36.7829 7.53899L35.0827 7.39902C35.169 6.99089 35.3387 6.63814 35.5919 6.34077C35.845 6.04047 36.1715 5.81015 36.5714 5.64982C36.9742 5.48656 37.4403 5.40495 37.9696 5.40495C38.3379 5.40495 38.6902 5.44866 39.0269 5.53613C39.3663 5.6236 39.667 5.75917 39.9288 5.9428C40.1934 6.12647 40.402 6.36265 40.5545 6.65123C40.707 6.93693 40.7832 7.27952 40.7832 7.67891V12.2093H39.0398V11.2779H38.988C38.8816 11.4878 38.7392 11.6729 38.5608 11.8332C38.3824 11.9907 38.1681 12.1146 37.9178 12.2049C37.6675 12.2924 37.3784 12.3362 37.0504 12.3362ZM37.5769 11.0505C37.8474 11.0505 38.0861 10.9966 38.2932 10.8887C38.5004 10.7779 38.6629 10.6292 38.7809 10.4427C38.8988 10.256 38.9578 10.0447 38.9578 9.80855V9.09577C38.9003 9.13367 38.8211 9.16864 38.7205 9.20073C38.6227 9.22988 38.5119 9.25757 38.3882 9.2838C38.2645 9.30714 38.1408 9.32897 38.0171 9.34939C37.8934 9.36687 37.7812 9.38294 37.6805 9.39749C37.4647 9.42958 37.2763 9.48056 37.1152 9.55055C36.9541 9.62053 36.8289 9.71527 36.7397 9.83478C36.6506 9.9514 36.606 10.0972 36.606 10.2721C36.606 10.5257 36.6966 10.7196 36.8778 10.8537C37.062 10.9849 37.295 11.0505 37.5769 11.0505ZM44.0477 3.25342V12.2093H42.2094V3.25342H44.0477ZM48.515 12.3405C47.8448 12.3405 47.2651 12.1962 46.7761 11.9076C46.2899 11.6161 45.9144 11.2108 45.6498 10.6919C45.3851 10.17 45.2528 9.56515 45.2528 8.87713C45.2528 8.18325 45.3851 7.57689 45.6498 7.05794C45.9144 6.53607 46.2899 6.13087 46.7761 5.84224C47.2651 5.55068 47.8448 5.40495 48.515 5.40495C49.1854 5.40495 49.7637 5.55068 50.25 5.84224C50.7391 6.13087 51.116 6.53607 51.3806 7.05794C51.6451 7.57689 51.7777 8.18325 51.7777 8.87713C51.7777 9.56515 51.6451 10.17 51.3806 10.6919C51.116 11.2108 50.7391 11.6161 50.25 11.9076C49.7637 12.1962 49.1854 12.3405 48.515 12.3405ZM48.5237 10.8974C48.8287 10.8974 49.0832 10.81 49.2875 10.6351C49.4919 10.4572 49.6456 10.2153 49.7492 9.90916C49.8557 9.60305 49.9087 9.25464 49.9087 8.86399C49.9087 8.47334 49.8557 8.12494 49.7492 7.81883C49.6456 7.51272 49.4919 7.27078 49.2875 7.09291C49.0832 6.9151 48.8287 6.82616 48.5237 6.82616C48.2157 6.82616 47.957 6.9151 47.747 7.09291C47.5399 7.27078 47.3831 7.51272 47.2767 7.81883C47.1731 8.12494 47.1213 8.47334 47.1213 8.86399C47.1213 9.25464 47.1731 9.60305 47.2767 9.90916C47.3831 10.2153 47.5399 10.4572 47.747 10.6351C47.957 10.81 48.2157 10.8974 48.5237 10.8974ZM55.9589 14.8681C55.3637 14.8681 54.8528 14.7851 54.4273 14.6189C54.0042 14.4556 53.6678 14.2326 53.4172 13.9498C53.1671 13.667 53.0047 13.3493 52.9295 12.9965L54.6297 12.7647C54.6818 12.8988 54.7637 13.0242 54.876 13.1408C54.9883 13.2574 55.1362 13.3507 55.3203 13.4207C55.5073 13.4936 55.7348 13.53 56.0022 13.53C56.4022 13.53 56.7314 13.4309 56.9902 13.2326C57.2524 13.0373 57.383 12.7093 57.383 12.2487V11.0199H57.3054C57.2249 11.2065 57.1039 11.3828 56.943 11.549C56.782 11.7152 56.5748 11.8508 56.3213 11.9557C56.0683 12.0607 55.7661 12.1131 55.4153 12.1131C54.9174 12.1131 54.4644 11.9965 54.0562 11.7633C53.6504 11.5271 53.3266 11.1671 53.0851 10.6832C52.8461 10.1963 52.7271 9.58117 52.7271 8.83777C52.7271 8.07683 52.849 7.44132 53.0938 6.93111C53.3381 6.42091 53.6635 6.039 54.0688 5.78539C54.4774 5.53173 54.9247 5.40495 55.4109 5.40495C55.782 5.40495 56.0928 5.46907 56.343 5.59737C56.5936 5.72273 56.7945 5.88014 56.9473 6.06963C57.1025 6.25623 57.222 6.43986 57.3054 6.62066H57.3743V5.49242H59.1998V12.2749C59.1998 12.8463 59.0615 13.3244 58.7854 13.7093C58.5092 14.0941 58.1266 14.3827 57.6379 14.5752C57.1516 14.7705 56.5921 14.8681 55.9589 14.8681ZM55.9979 10.7138C56.2943 10.7138 56.5444 10.6394 56.7488 10.4908C56.956 10.3392 57.1141 10.1234 57.2234 9.84352C57.3357 9.56075 57.3916 9.22256 57.3916 8.82903C57.3916 8.43545 57.3372 8.09432 57.2278 7.80574C57.1184 7.51418 56.9603 7.28826 56.7531 7.12793C56.5459 6.96755 56.2943 6.8874 55.9979 6.8874C55.6957 6.8874 55.4413 6.97048 55.2341 7.13667C55.0268 7.29993 54.8702 7.52732 54.7637 7.81883C54.6572 8.11039 54.6042 8.44712 54.6042 8.82903C54.6042 9.21674 54.6572 9.55201 54.7637 9.83478C54.8731 10.1147 55.0297 10.3318 55.2341 10.4864C55.4413 10.638 55.6957 10.7138 55.9979 10.7138Z" fill="#3087CC"/>
<path d="M0.123169 20.8834V19.6417H0.349073C0.426656 19.57 0.499674 19.4688 0.568132 19.3382C0.637727 19.2064 0.696484 19.0307 0.744402 18.811C0.793462 18.5901 0.825982 18.3098 0.841953 17.9699L0.917255 16.4714H2.99831V19.6417H3.40219V20.8765H2.99831V20.0232H0.527057V20.8834H0.123169ZM0.855645 19.6417H2.59442V16.853H1.3006L1.24584 17.9699C1.23215 18.2289 1.20819 18.4635 1.17396 18.674C1.13974 18.8832 1.09581 19.0688 1.04218 19.2306C0.988561 19.3914 0.926382 19.5284 0.855645 19.6417ZM5.09089 20.0787C4.83764 20.0787 4.61913 20.0221 4.43545 19.9088C4.2529 19.7943 4.11199 19.6347 4.01273 19.4301C3.91461 19.2243 3.86555 18.985 3.86555 18.7121C3.86555 18.4392 3.91461 18.1988 4.01273 17.9907C4.11199 17.7814 4.25004 17.6184 4.42689 17.5016C4.60487 17.3837 4.81252 17.3247 5.04983 17.3247C5.18674 17.3247 5.32192 17.3478 5.45542 17.3941C5.58891 17.4403 5.71045 17.5155 5.81995 17.6195C5.92949 17.7224 6.01677 17.8589 6.08183 18.0288C6.14684 18.1988 6.17937 18.408 6.17937 18.6566V18.83H4.15307V18.4763H5.76862C5.76862 18.3259 5.73894 18.1918 5.67961 18.0739C5.62144 17.9559 5.53817 17.8629 5.42978 17.7947C5.3225 17.7265 5.19585 17.6924 5.04983 17.6924C4.88896 17.6924 4.74977 17.7328 4.63226 17.8138C4.51588 17.8935 4.42632 17.9976 4.36357 18.126C4.30082 18.2542 4.26944 18.3919 4.26944 18.5387V18.7746C4.26944 18.9757 4.30367 19.1463 4.37213 19.2862C4.44172 19.4249 4.53813 19.5307 4.66135 19.6035C4.78457 19.6752 4.92776 19.7111 5.09089 19.7111C5.19701 19.7111 5.29286 19.696 5.37841 19.666C5.46515 19.6347 5.53985 19.5885 5.6026 19.5272C5.66535 19.4648 5.71388 19.3873 5.74809 19.2948L6.13826 19.4058C6.0972 19.5399 6.02819 19.6579 5.93123 19.7596C5.83421 19.8602 5.71441 19.9388 5.5718 19.9955C5.4292 20.051 5.26891 20.0787 5.09089 20.0787ZM8.55306 18.504V18.8856H7.10178V18.504H8.55306ZM7.19763 17.3594V20.0232H6.79373V17.3594H7.19763ZM8.8611 17.3594V20.0232H8.4572V17.3594H8.8611ZM9.94785 18.3236H10.7009C11.0089 18.3236 11.2445 18.4029 11.4077 18.5612C11.5708 18.7196 11.6524 18.9202 11.6524 19.163C11.6524 19.3226 11.6159 19.4677 11.5428 19.5983C11.4698 19.7278 11.3626 19.8313 11.2211 19.9088C11.0797 19.9851 10.9062 20.0232 10.7009 20.0232H9.59869V17.3594H10.0026V19.6417H10.7009C10.8606 19.6417 10.9918 19.5989 11.0945 19.5134C11.1972 19.4278 11.2485 19.318 11.2485 19.1838C11.2485 19.0428 11.1972 18.9278 11.0945 18.8387C10.9918 18.7497 10.8606 18.7052 10.7009 18.7052H9.94785V18.3236ZM13.8896 17.3594V17.7409H12.6711V20.0232H12.2672V17.3594H13.8896ZM14.8831 19.4197L16.1495 17.3594H16.615V20.0232H16.2111V17.9629L14.9515 20.0232H14.4792V17.3594H14.8831V19.4197ZM18.7102 20.0232V17.3594H20.7775V20.0232H20.3736V17.7409H19.1141V20.0232H18.7102ZM22.583 20.0787C22.3457 20.0787 22.1375 20.0215 21.9584 19.907C21.7804 19.7926 21.6412 19.6324 21.5408 19.4266C21.4415 19.2208 21.3919 18.9804 21.3919 18.7052C21.3919 18.4277 21.4415 18.1855 21.5408 17.9785C21.6412 17.7715 21.7804 17.6109 21.9584 17.4964C22.1375 17.3819 22.3457 17.3247 22.583 17.3247C22.8203 17.3247 23.028 17.3819 23.206 17.4964C23.3851 17.6109 23.5243 17.7715 23.6236 17.9785C23.7239 18.1855 23.7742 18.4277 23.7742 18.7052C23.7742 18.9804 23.7239 19.2208 23.6236 19.4266C23.5243 19.6324 23.3851 19.7926 23.206 19.907C23.028 20.0215 22.8203 20.0787 22.583 20.0787ZM22.583 19.7111C22.7633 19.7111 22.9116 19.6642 23.028 19.5706C23.1444 19.4769 23.2305 19.3538 23.2864 19.2012C23.3423 19.0486 23.3703 18.8832 23.3703 18.7052C23.3703 18.5271 23.3423 18.3612 23.2864 18.2075C23.2305 18.0537 23.1444 17.9294 23.028 17.8346C22.9116 17.7397 22.7633 17.6924 22.583 17.6924C22.4028 17.6924 22.2545 17.7397 22.1381 17.8346C22.0217 17.9294 21.9356 18.0537 21.8797 18.2075C21.8238 18.3612 21.7958 18.5271 21.7958 18.7052C21.7958 18.8832 21.8238 19.0486 21.8797 19.2012C21.9356 19.3538 22.0217 19.4769 22.1381 19.5706C22.2545 19.6642 22.4028 19.7111 22.583 19.7111ZM24.11 20.7863V19.6417H24.3291C24.3827 19.585 24.4289 19.5238 24.4677 19.4578C24.5065 19.392 24.5401 19.3139 24.5687 19.2237C24.5984 19.1324 24.6235 19.0214 24.644 18.8907C24.6645 18.7589 24.6828 18.6 24.6987 18.4138L24.7878 17.3594H26.4581V19.6417H26.8619V20.7863H26.4581V20.0232H24.5139V20.7863H24.11ZM24.7878 19.6417H26.0542V17.7409H25.1642L25.0958 18.4138C25.0673 18.6925 25.0319 18.9358 24.9897 19.144C24.9475 19.3521 24.8801 19.518 24.7878 19.6417ZM28.5891 19.3434H29.0204C29.0295 19.4637 29.0832 19.555 29.1813 19.6174C29.2806 19.6799 29.4095 19.7111 29.5681 19.7111C29.7301 19.7111 29.8687 19.6775 29.9839 19.6105C30.0992 19.5423 30.1568 19.4324 30.1568 19.281C30.1568 19.1919 30.1351 19.1145 30.0918 19.0486C30.0484 18.9815 29.9874 18.9295 29.9086 18.8925C29.8299 18.8555 29.7369 18.837 29.6297 18.837H29.1779V18.4693H29.6297C29.7906 18.4693 29.9092 18.4323 29.9856 18.3583C30.0632 18.2843 30.102 18.1918 30.102 18.0808C30.102 17.9618 30.0604 17.8664 29.9771 17.7947C29.8938 17.7218 29.7757 17.6854 29.6228 17.6854C29.4688 17.6854 29.3405 17.7207 29.2378 17.7912C29.1351 17.8606 29.0809 17.9502 29.0752 18.06H28.6508C28.6553 17.9167 28.6987 17.79 28.7808 17.6802C28.863 17.5692 28.9748 17.4825 29.1163 17.4201C29.2577 17.3565 29.4198 17.3247 29.6023 17.3247C29.7871 17.3247 29.9474 17.3576 30.0832 17.4235C30.2201 17.4883 30.3256 17.5767 30.3998 17.6889C30.4751 17.7999 30.5128 17.9259 30.5128 18.067C30.5128 18.2173 30.4711 18.3387 30.3878 18.4312C30.3045 18.5237 30.2001 18.5896 30.0746 18.6289V18.6566C30.1739 18.6636 30.26 18.6959 30.3331 18.7538C30.4072 18.8104 30.4649 18.885 30.5059 18.9775C30.547 19.0688 30.5675 19.1699 30.5675 19.281C30.5675 19.4428 30.5248 19.5839 30.4392 19.7041C30.3536 19.8232 30.2361 19.9157 30.0866 19.9816C29.9372 20.0463 29.7666 20.0787 29.5749 20.0787C29.389 20.0787 29.2224 20.0481 29.0752 19.9868C28.928 19.9244 28.8111 19.8382 28.7244 19.7284C28.6388 19.6174 28.5937 19.489 28.5891 19.3434ZM31.9084 20.0856C31.7418 20.0856 31.5906 20.0538 31.4549 19.9903C31.3191 19.9256 31.2113 19.8325 31.1314 19.7111C31.0516 19.5885 31.0117 19.4405 31.0117 19.2671C31.0117 19.1145 31.0413 18.9908 31.1006 18.896C31.1599 18.8 31.2393 18.7248 31.3385 18.6705C31.4378 18.6161 31.5473 18.5757 31.6671 18.5491C31.788 18.5213 31.9095 18.4994 32.0316 18.4832C32.1914 18.4624 32.3209 18.4468 32.4201 18.4364C32.5205 18.4248 32.5935 18.4057 32.6392 18.3791C32.6859 18.3526 32.7093 18.3063 32.7093 18.2404V18.2265C32.7093 18.0554 32.6631 17.9224 32.5707 17.8277C32.4794 17.7328 32.3408 17.6854 32.1548 17.6854C31.962 17.6854 31.8108 17.7282 31.7013 17.8138C31.5918 17.8993 31.5148 17.9907 31.4703 18.0878L31.0869 17.949C31.1554 17.7872 31.2466 17.6612 31.3608 17.571C31.476 17.4796 31.6015 17.4161 31.7372 17.3802C31.8742 17.3432 32.0088 17.3247 32.1412 17.3247C32.2256 17.3247 32.3225 17.3351 32.4321 17.3559C32.5427 17.3756 32.6494 17.4166 32.7521 17.4791C32.8559 17.5415 32.9421 17.6357 33.0105 17.7617C33.079 17.8878 33.1132 18.0566 33.1132 18.2681V20.0232H32.7093V19.6625H32.6888C32.6614 19.7203 32.6158 19.7822 32.5519 19.848C32.488 19.914 32.403 19.97 32.2969 20.0163C32.1908 20.0625 32.0613 20.0856 31.9084 20.0856ZM31.97 19.718C32.1297 19.718 32.2644 19.6862 32.3739 19.6226C32.4846 19.559 32.5678 19.4769 32.6237 19.3763C32.6808 19.2758 32.7093 19.1699 32.7093 19.059V18.6844C32.6922 18.7052 32.6545 18.7243 32.5964 18.7416C32.5393 18.7578 32.4731 18.7722 32.3979 18.785C32.3237 18.7965 32.2513 18.8069 32.1805 18.8162C32.1109 18.8243 32.0545 18.8312 32.0111 18.837C31.9061 18.8508 31.808 18.8734 31.7167 18.9046C31.6266 18.9347 31.5536 18.9804 31.4977 19.0416C31.4429 19.1018 31.4155 19.1838 31.4155 19.2879C31.4155 19.4301 31.4674 19.5376 31.5713 19.6105C31.6762 19.6821 31.8091 19.718 31.97 19.718ZM33.6176 20.0232V19.6417H33.7135C33.7922 19.6417 33.8578 19.6261 33.9103 19.5949C33.9628 19.5625 34.005 19.5064 34.037 19.4266C34.07 19.3457 34.0951 19.2335 34.1122 19.0902C34.1305 18.9457 34.1436 18.7618 34.1516 18.5387L34.1995 17.3594H35.952V20.0232H35.5481V17.7409H34.5829L34.5418 18.6913C34.5327 18.9098 34.5133 19.1023 34.4836 19.2688C34.4551 19.4342 34.4112 19.5729 34.3518 19.685C34.2936 19.7972 34.2161 19.8816 34.1191 19.9383C34.0221 19.9949 33.9006 20.0232 33.7545 20.0232H33.6176ZM37.7609 20.0787C37.5236 20.0787 37.3154 20.0215 37.1363 19.907C36.9583 19.7926 36.8191 19.6324 36.7187 19.4266C36.6194 19.2208 36.5698 18.9804 36.5698 18.7052C36.5698 18.4277 36.6194 18.1855 36.7187 17.9785C36.8191 17.7715 36.9583 17.6109 37.1363 17.4964C37.3154 17.3819 37.5236 17.3247 37.7609 17.3247C37.9983 17.3247 38.2059 17.3819 38.3839 17.4964C38.563 17.6109 38.7022 17.7715 38.8014 17.9785C38.9019 18.1855 38.952 18.4277 38.952 18.7052C38.952 18.9804 38.9019 19.2208 38.8014 19.4266C38.7022 19.6324 38.563 19.7926 38.3839 19.907C38.2059 20.0215 37.9983 20.0787 37.7609 20.0787ZM37.7609 19.7111C37.9412 19.7111 38.0895 19.6642 38.2059 19.5706C38.3223 19.4769 38.4084 19.3538 38.4643 19.2012C38.5202 19.0486 38.5482 18.8832 38.5482 18.7052C38.5482 18.5271 38.5202 18.3612 38.4643 18.2075C38.4084 18.0537 38.3223 17.9294 38.2059 17.8346C38.0895 17.7397 37.9412 17.6924 37.7609 17.6924C37.5807 17.6924 37.4323 17.7397 37.316 17.8346C37.1996 17.9294 37.1134 18.0537 37.0575 18.2075C37.0016 18.3612 36.9737 18.5271 36.9737 18.7052C36.9737 18.8832 37.0016 19.0486 37.0575 19.2012C37.1134 19.3538 37.1996 19.4769 37.316 19.5706C37.4323 19.6642 37.5807 19.7111 37.7609 19.7111ZM41.191 17.3594V17.7409H39.9725V20.0232H39.5686V17.3594H41.191ZM45.8126 16.4714V20.0232H45.3882V16.853H43.622V20.0232H43.1976V16.4714H45.8126ZM46.4771 16.853V16.4714H49.106V16.853H48.0036V20.0232H47.5792V16.853H46.4771ZM52.4351 17.5814H52.011C51.986 17.4577 51.9416 17.349 51.879 17.2553C51.8173 17.1617 51.7421 17.083 51.653 17.0194C51.5652 16.9547 51.4679 16.9061 51.3604 16.8738C51.2534 16.8414 51.1416 16.8252 51.025 16.8252C50.813 16.8252 50.6207 16.8796 50.4481 16.9882C50.2771 17.0969 50.1407 17.257 50.0395 17.4687C49.9387 17.6802 49.8886 17.9398 49.8886 18.2473C49.8886 18.5549 49.9387 18.8145 50.0395 19.026C50.1407 19.2376 50.2771 19.3977 50.4481 19.5064C50.6207 19.6151 50.813 19.6695 51.025 19.6695C51.1416 19.6695 51.2534 19.6532 51.3604 19.6209C51.4679 19.5885 51.5652 19.5405 51.653 19.4769C51.7421 19.4122 51.8173 19.333 51.879 19.2393C51.9416 19.1445 51.986 19.0358 52.011 18.9133H52.4351C52.4033 19.0948 52.345 19.2573 52.2607 19.4006C52.1763 19.544 52.0713 19.666 51.946 19.7665C51.8202 19.866 51.6795 19.9417 51.5233 19.9937C51.3681 20.0458 51.2019 20.0718 51.025 20.0718C50.7262 20.0718 50.4602 19.9978 50.2274 19.8498C49.9946 19.7018 49.8115 19.4914 49.678 19.2185C49.5445 18.9457 49.478 18.6219 49.478 18.2473C49.478 17.8727 49.5445 17.549 49.678 17.2761C49.8115 17.0033 49.9946 16.7928 50.2274 16.6449C50.4602 16.4969 50.7262 16.4229 51.025 16.4229C51.2019 16.4229 51.3681 16.4489 51.5233 16.5009C51.6795 16.553 51.8202 16.6292 51.946 16.7298C52.0713 16.8293 52.1763 16.9507 52.2607 17.094C52.345 17.2362 52.4033 17.3987 52.4351 17.5814ZM53.6689 19.5376L53.6414 19.7249C53.6221 19.8567 53.5922 19.9978 53.5522 20.1481C53.5137 20.2984 53.4732 20.4401 53.4308 20.573C53.3889 20.706 53.3537 20.8118 53.3267 20.8904H53.0183C53.0332 20.8164 53.0525 20.7187 53.0766 20.5973C53.1007 20.4759 53.1243 20.34 53.1484 20.1897C53.1734 20.0406 53.1942 19.8879 53.2101 19.7319L53.2308 19.5376H53.6689ZM56.546 20.0856C56.3792 20.0856 56.2284 20.0538 56.0925 19.9903C55.9566 19.9256 55.8491 19.8325 55.7691 19.7111C55.6891 19.5885 55.6491 19.4405 55.6491 19.2671C55.6491 19.1145 55.679 18.9908 55.7383 18.896C55.7975 18.8 55.8771 18.7248 55.9763 18.6705C56.0756 18.6161 56.185 18.5757 56.3045 18.5491C56.4255 18.5213 56.5469 18.4994 56.6693 18.4832C56.8289 18.4624 56.9585 18.4468 57.0578 18.4364C57.158 18.4248 57.2313 18.4057 57.2766 18.3791C57.3233 18.3526 57.3469 18.3063 57.3469 18.2404V18.2265C57.3469 18.0554 57.3007 17.9224 57.2081 17.8277C57.1171 17.7328 56.9783 17.6854 56.7922 17.6854C56.5995 17.6854 56.4486 17.7282 56.3387 17.8138C56.2293 17.8993 56.1522 17.9907 56.1079 18.0878L55.7248 17.949C55.7932 17.7872 55.8843 17.6612 55.9985 17.571C56.1137 17.4796 56.239 17.4161 56.3749 17.3802C56.5117 17.3432 56.6462 17.3247 56.7787 17.3247C56.8631 17.3247 56.9599 17.3351 57.0698 17.3559C57.1802 17.3756 57.2872 17.4166 57.3898 17.4791C57.4934 17.5415 57.5797 17.6357 57.6481 17.7617C57.7166 17.8878 57.7508 18.0566 57.7508 18.2681V20.0232H57.3469V19.6625H57.3262C57.2992 19.7203 57.2534 19.7822 57.1893 19.848C57.1257 19.914 57.0404 19.97 56.9344 20.0163C56.8284 20.0625 56.6987 20.0856 56.546 20.0856ZM56.6077 19.718C56.7672 19.718 56.9021 19.6862 57.0115 19.6226C57.1224 19.559 57.2052 19.4769 57.2611 19.3763C57.3185 19.2758 57.3469 19.1699 57.3469 19.059V18.6844C57.3301 18.7052 57.292 18.7243 57.2342 18.7416C57.1768 18.7578 57.1108 18.7722 57.0356 18.785C56.9614 18.7965 56.8891 18.8069 56.8183 18.8162C56.7484 18.8243 56.692 18.8312 56.6486 18.837C56.5436 18.8508 56.4457 18.8734 56.3542 18.9046C56.264 18.9347 56.1913 18.9804 56.1354 19.0416C56.0804 19.1018 56.053 19.1838 56.053 19.2879C56.053 19.4301 56.105 19.5376 56.2091 19.6105C56.3137 19.6821 56.4467 19.718 56.6077 19.718ZM58.4881 20.0232V17.3594H59.5628C59.8457 17.3594 60.0703 17.4241 60.237 17.5536C60.4038 17.6831 60.4867 17.8542 60.4867 18.067C60.4867 18.2289 60.4395 18.3543 60.345 18.4433C60.2501 18.5312 60.1286 18.5907 59.9802 18.6219C60.0775 18.6358 60.1715 18.6705 60.2626 18.726C60.3551 18.7815 60.4318 18.8578 60.492 18.9549C60.5527 19.0509 60.5826 19.1688 60.5826 19.3087C60.5826 19.4451 60.5484 19.5671 60.4799 19.6746C60.4115 19.7822 60.3137 19.8671 60.1855 19.9296C60.0578 19.992 59.905 20.0232 59.7272 20.0232H58.4881ZM58.8713 19.6486H59.7272C59.8664 19.6486 59.9754 19.6151 60.0539 19.548C60.1325 19.481 60.172 19.3897 60.172 19.274C60.172 19.1364 60.1325 19.0283 60.0539 18.9497C59.9754 18.8699 59.8664 18.83 59.7272 18.83H58.8713V19.6486ZM58.8713 18.4763H59.5628C59.6713 18.4763 59.7643 18.4612 59.8419 18.4312C59.9195 18.3999 59.9787 18.356 60.0197 18.2994C60.0621 18.2415 60.0828 18.1733 60.0828 18.0947C60.0828 17.9826 60.0371 17.8947 59.9445 17.8311C59.852 17.7664 59.7248 17.734 59.5628 17.734H58.8713V18.4763ZM61.0433 17.7409V17.3594H63.1792V17.7409H62.3171V20.0232H61.9127V17.7409H61.0433ZM64.6997 20.0787C64.4626 20.0787 64.2544 20.0215 64.0751 19.907C63.8973 19.7926 63.758 19.6324 63.6578 19.4266C63.5585 19.2208 63.5089 18.9804 63.5089 18.7052C63.5089 18.4277 63.5585 18.1855 63.6578 17.9785C63.758 17.7715 63.8973 17.6109 64.0751 17.4964C64.2544 17.3819 64.4626 17.3247 64.6997 17.3247C64.9373 17.3247 65.145 17.3819 65.3228 17.4964C65.5021 17.6109 65.6414 17.7715 65.7407 17.9785C65.8409 18.1855 65.891 18.4277 65.891 18.7052C65.891 18.9804 65.8409 19.2208 65.7407 19.4266C65.6414 19.6324 65.5021 19.7926 65.3228 19.907C65.145 20.0215 64.9373 20.0787 64.6997 20.0787ZM64.6997 19.7111C64.8804 19.7111 65.0284 19.6642 65.145 19.5706C65.2611 19.4769 65.3474 19.3538 65.4033 19.2012C65.4592 19.0486 65.4872 18.8832 65.4872 18.7052C65.4872 18.5271 65.4592 18.3612 65.4033 18.2075C65.3474 18.0537 65.2611 17.9294 65.145 17.8346C65.0284 17.7397 64.8804 17.6924 64.6997 17.6924C64.5195 17.6924 64.3715 17.7397 64.2549 17.8346C64.1387 17.9294 64.0525 18.0537 63.9966 18.2075C63.9407 18.3612 63.9127 18.5271 63.9127 18.7052C63.9127 18.8832 63.9407 19.0486 63.9966 19.2012C64.0525 19.3538 64.1387 19.4769 64.2549 19.5706C64.3715 19.6642 64.5195 19.7111 64.6997 19.7111Z" fill="#8D8D8D"/>
</svg>
