<svg width="166" height="43" viewBox="0 0 166 43" fill="none" xmlns="http://www.w3.org/2000/svg">
<path d="M4.75438 25.0002H0.599609L6.93027 6.66185H11.9268L18.2485 25.0002H14.0937L9.50014 10.8525H9.35687L4.75438 25.0002ZM4.49471 17.792H14.3086V20.8186H4.49471V17.792ZM31.4829 11.2465L26.6744 25.0002H22.3764L17.568 11.2465H21.5974L24.4538 21.0872H24.597L27.4445 11.2465H31.4829ZM40.7505 11.2465V14.1118H32.4678V11.2465H40.7505ZM34.3482 7.95126H38.1627V20.7738C38.1627 21.126 38.2165 21.4006 38.3239 21.5976C38.4314 21.7886 38.5806 21.9229 38.7716 22.0005C38.9686 22.0781 39.1955 22.1169 39.4522 22.1169C39.6312 22.1169 39.8103 22.102 39.9894 22.0722C40.1685 22.0363 40.3058 22.0095 40.4013 21.9916L41.0012 24.8301C40.8102 24.8898 40.5416 24.9584 40.1954 25.036C39.8491 25.1196 39.4283 25.1703 38.9328 25.1882C38.0135 25.2241 37.2076 25.1017 36.5152 24.8211C35.8287 24.5405 35.2944 24.1048 34.9124 23.5138C34.5303 22.9228 34.3423 22.1766 34.3482 21.2752V7.95126ZM49.3018 25.2688C47.911 25.2688 46.7081 24.9733 45.6933 24.3824C44.6844 23.7854 43.9054 22.9556 43.3562 21.8931C42.807 20.8245 42.5324 19.5859 42.5324 18.1771C42.5324 16.7563 42.807 15.5147 43.3562 14.4521C43.9054 13.3835 44.6844 12.5538 45.6933 11.9628C46.7081 11.3658 47.911 11.0674 49.3018 11.0674C50.6927 11.0674 51.8926 11.3658 52.9015 11.9628C53.9163 12.5538 54.6983 13.3835 55.2475 14.4521C55.7967 15.5147 56.0713 16.7563 56.0713 18.1771C56.0713 19.5859 55.7967 20.8245 55.2475 21.8931C54.6983 22.9556 53.9163 23.7854 52.9015 24.3824C51.8926 24.9733 50.6927 25.2688 49.3018 25.2688ZM49.3198 22.3139C49.9525 22.3139 50.4808 22.1348 50.9047 21.7767C51.3285 21.4125 51.6479 20.9171 51.8628 20.2903C52.0836 19.6635 52.1941 18.9501 52.1941 18.1502C52.1941 17.3503 52.0836 16.6369 51.8628 16.0101C51.6479 15.3833 51.3285 14.8879 50.9047 14.5237C50.4808 14.1596 49.9525 13.9775 49.3198 13.9775C48.681 13.9775 48.1438 14.1596 47.708 14.5237C47.2782 14.8879 46.9528 15.3833 46.732 16.0101C46.5171 16.6369 46.4096 17.3503 46.4096 18.1502C46.4096 18.9501 46.5171 19.6635 46.732 20.2903C46.9528 20.9171 47.2782 21.4125 47.708 21.7767C48.1438 22.1348 48.681 22.3139 49.3198 22.3139ZM133.817 6.66185V25.0002H129.94V10.3421H129.832L125.633 12.9746V9.53617L130.173 6.66185H133.817ZM146.154 6.66185V25.0002H142.276V10.3421H142.169L137.969 12.9746V9.53617L142.509 6.66185H146.154ZM157.55 25.2509C156.607 25.2449 155.697 25.0868 154.819 24.7763C153.948 24.4659 153.166 23.9615 152.473 23.2631C151.781 22.5646 151.231 21.6394 150.826 20.4873C150.426 19.3351 150.226 17.9204 150.226 16.2429C150.232 14.7028 150.408 13.3268 150.754 12.115C151.106 10.8972 151.608 9.86449 152.258 9.01682C152.915 8.16915 153.7 7.52444 154.613 7.0827C155.527 6.63499 156.55 6.41113 157.684 6.41113C158.908 6.41113 159.989 6.64991 160.926 7.12747C161.863 7.59906 162.615 8.24078 163.182 9.05264C163.755 9.86449 164.102 10.7749 164.221 11.7837H160.398C160.248 11.145 159.935 10.6435 159.457 10.2794C158.98 9.91523 158.389 9.73316 157.684 9.73316C156.491 9.73316 155.583 10.2525 154.962 11.2912C154.348 12.3299 154.034 13.7417 154.022 15.5266H154.148C154.422 14.9834 154.792 14.5207 155.258 14.1387C155.729 13.7507 156.264 13.4552 156.861 13.2522C157.464 13.0433 158.099 12.9388 158.768 12.9388C159.854 12.9388 160.821 13.1955 161.669 13.7089C162.517 14.2163 163.185 14.9147 163.675 15.8042C164.164 16.6936 164.409 17.7114 164.409 18.8576C164.409 20.0992 164.12 21.2036 163.541 22.1707C162.967 23.1377 162.165 23.8958 161.132 24.445C160.105 24.9883 158.911 25.2569 157.55 25.2509ZM157.532 22.2065C158.129 22.2065 158.663 22.0632 159.135 21.7767C159.607 21.4901 159.977 21.1021 160.245 20.6126C160.514 20.1231 160.648 19.5739 160.648 18.965C160.648 18.3561 160.514 17.8099 160.245 17.3264C159.983 16.8429 159.619 16.4578 159.153 16.1713C158.687 15.8848 158.156 15.7415 157.559 15.7415C157.111 15.7415 156.697 15.8251 156.314 15.9922C155.938 16.1594 155.607 16.3922 155.321 16.6906C155.04 16.9891 154.819 17.3354 154.658 17.7293C154.497 18.1174 154.416 18.5322 154.416 18.974C154.416 19.565 154.55 20.1052 154.819 20.5947C155.094 21.0842 155.464 21.4752 155.929 21.7677C156.401 22.0602 156.935 22.2065 157.532 22.2065Z" fill="#2C2C2C"/>
<path d="M58.4805 25.0004V22.726L65.2141 14.3896V14.2911H58.7133V11.2467H69.8076V13.727L63.4859 21.8575V21.956H70.0404V25.0004H58.4805ZM76.8792 25.2601C76.0017 25.2601 75.2197 25.1079 74.5332 24.8034C73.8467 24.493 73.3035 24.0363 72.9035 23.4334C72.5095 22.8245 72.3125 22.0664 72.3125 21.159C72.3125 20.3949 72.4528 19.7532 72.7334 19.2339C73.014 18.7145 73.396 18.2966 73.8795 17.9803C74.3631 17.6639 74.9123 17.4251 75.5271 17.2639C76.148 17.1027 76.7986 16.9893 77.4792 16.9237C78.2791 16.8401 78.9238 16.7625 79.4133 16.6908C79.9028 16.6132 80.258 16.4998 80.4788 16.3506C80.6997 16.2013 80.8101 15.9805 80.8101 15.688V15.6342C80.8101 15.0671 80.6311 14.6284 80.2729 14.318C79.9207 14.0076 79.4192 13.8523 78.7686 13.8523C78.0821 13.8523 77.5359 14.0046 77.1299 14.309C76.724 14.6075 76.4554 14.9836 76.3241 15.4373L72.7961 15.1507C72.9752 14.315 73.3274 13.5927 73.8527 12.9838C74.378 12.3689 75.0555 11.8973 75.8853 11.569C76.721 11.2347 77.6881 11.0676 78.7865 11.0676C79.5506 11.0676 80.2818 11.1571 80.9803 11.3362C81.6847 11.5153 82.3085 11.7929 82.8517 12.1689C83.4009 12.545 83.8337 13.0286 84.1501 13.6195C84.4665 14.2045 84.6247 14.906 84.6247 15.7238V25.0004H81.0071V23.0931H80.8997C80.6788 23.5229 80.3833 23.902 80.0132 24.2303C79.6431 24.5527 79.1984 24.8064 78.679 24.9914C78.1597 25.1705 77.5597 25.2601 76.8792 25.2601ZM77.9716 22.6275C78.5328 22.6275 79.0282 22.5171 79.458 22.2962C79.8878 22.0694 80.2251 21.7649 80.4699 21.3829C80.7146 21.0008 80.837 20.568 80.837 20.0845V18.625C80.7176 18.7026 80.5534 18.7742 80.3445 18.8399C80.1416 18.8996 79.9117 18.9563 79.655 19.01C79.3984 19.0578 79.1417 19.1025 78.885 19.1443C78.6283 19.1801 78.3955 19.213 78.1865 19.2428C77.7388 19.3085 77.3478 19.4129 77.0135 19.5562C76.6792 19.6995 76.4196 19.8935 76.2345 20.1382C76.0495 20.377 75.9569 20.6755 75.9569 21.0337C75.9569 21.553 76.145 21.95 76.521 22.2246C76.9031 22.4932 77.3866 22.6275 77.9716 22.6275ZM91.3986 6.66211V25.0004H87.584V6.66211H91.3986ZM100.668 25.269C99.2776 25.269 98.0747 24.9735 97.0599 24.3826C96.051 23.7856 95.272 22.9558 94.7228 21.8933C94.1736 20.8247 93.899 19.5861 93.899 18.1773C93.899 16.7565 94.1736 15.5149 94.7228 14.4523C95.272 13.3837 96.051 12.554 97.0599 11.963C98.0747 11.366 99.2776 11.0676 100.668 11.0676C102.059 11.0676 103.259 11.366 104.268 11.963C105.283 12.554 106.065 13.3837 106.614 14.4523C107.163 15.5149 107.438 16.7565 107.438 18.1773C107.438 19.5861 107.163 20.8247 106.614 21.8933C106.065 22.9558 105.283 23.7856 104.268 24.3826C103.259 24.9735 102.059 25.269 100.668 25.269ZM100.686 22.3141C101.319 22.3141 101.847 22.135 102.271 21.7769C102.695 21.4127 103.014 20.9173 103.229 20.2905C103.45 19.6637 103.56 18.9503 103.56 18.1504C103.56 17.3505 103.45 16.6371 103.229 16.0103C103.014 15.3835 102.695 14.8881 102.271 14.5239C101.847 14.1598 101.319 13.9777 100.686 13.9777C100.047 13.9777 99.5104 14.1598 99.0746 14.5239C98.6448 14.8881 98.3194 15.3835 98.0986 16.0103C97.8837 16.6371 97.7762 17.3505 97.7762 18.1504C97.7762 18.9503 97.8837 19.6637 98.0986 20.2905C98.3194 20.9173 98.6448 21.4127 99.0746 21.7769C99.5104 22.135 100.047 22.3141 100.686 22.3141ZM116.114 30.4446C114.879 30.4446 113.819 30.2745 112.936 29.9342C112.058 29.5999 111.36 29.1432 110.84 28.5642C110.321 27.9852 109.984 27.3345 109.828 26.6122L113.356 26.1376C113.464 26.4122 113.634 26.6689 113.867 26.9077C114.1 27.1464 114.407 27.3375 114.789 27.4807C115.177 27.63 115.649 27.7046 116.204 27.7046C117.034 27.7046 117.717 27.5016 118.254 27.0957C118.798 26.6957 119.069 26.0242 119.069 25.081V22.5648H118.908C118.741 22.9469 118.49 23.308 118.156 23.6483C117.822 23.9886 117.392 24.2662 116.866 24.4811C116.341 24.696 115.714 24.8034 114.986 24.8034C113.953 24.8034 113.013 24.5646 112.166 24.0871C111.324 23.6035 110.652 22.8663 110.151 21.8754C109.655 20.8785 109.408 19.6189 109.408 18.0967C109.408 16.5386 109.661 15.2373 110.169 14.1926C110.676 13.1479 111.351 12.3659 112.192 11.8466C113.04 11.3272 113.968 11.0676 114.977 11.0676C115.747 11.0676 116.392 11.1989 116.911 11.4616C117.431 11.7183 117.848 12.0406 118.165 12.4286C118.487 12.8107 118.735 13.1867 118.908 13.5569H119.051V11.2467H122.839V25.1347C122.839 26.3047 122.552 27.2837 121.979 28.0717C121.406 28.8597 120.612 29.4507 119.598 29.8447C118.589 30.2446 117.428 30.4446 116.114 30.4446ZM116.195 21.938C116.81 21.938 117.329 21.7858 117.753 21.4814C118.183 21.171 118.511 20.7292 118.738 20.1561C118.971 19.5771 119.087 18.8846 119.087 18.0788C119.087 17.2729 118.974 16.5744 118.747 15.9835C118.52 15.3865 118.192 14.9239 117.762 14.5956C117.332 14.2672 116.81 14.1031 116.195 14.1031C115.568 14.1031 115.04 14.2732 114.61 14.6135C114.18 14.9478 113.855 15.4134 113.634 16.0103C113.413 16.6073 113.303 17.2968 113.303 18.0788C113.303 18.8727 113.413 19.5592 113.634 20.1382C113.861 20.7113 114.186 21.156 114.61 21.4724C115.04 21.7828 115.568 21.938 116.195 21.938Z" fill="#3087CC"/>
<path d="M0.255684 42.7614V40.2188H0.724434C0.885419 40.072 1.03693 39.8648 1.17898 39.5973C1.32339 39.3274 1.44531 38.9676 1.54474 38.5178C1.64654 38.0656 1.71402 37.4915 1.74716 36.7955L1.90341 33.7273H6.22159V40.2188H7.05966V42.7472H6.22159V41H1.09375V42.7614H0.255684ZM1.77557 40.2188H5.38352V34.5085H2.69886L2.58523 36.7955C2.55682 37.3258 2.5071 37.8063 2.43608 38.2372C2.36506 38.6657 2.27391 39.0457 2.16264 39.3771C2.05137 39.7062 1.92235 39.9867 1.77557 40.2188ZM10.5637 41.1136C10.0382 41.1136 9.58481 40.9976 9.20366 40.7656C8.82487 40.5312 8.53249 40.2045 8.32653 39.7855C8.12293 39.3641 8.02113 38.8741 8.02113 38.3153C8.02113 37.7566 8.12293 37.2642 8.32653 36.8381C8.53249 36.4096 8.81895 36.0758 9.1859 35.8366C9.55522 35.5952 9.98609 35.4744 10.4785 35.4744C10.7626 35.4744 11.0431 35.5218 11.3201 35.6165C11.5971 35.7112 11.8493 35.8651 12.0765 36.0781C12.3038 36.2888 12.4849 36.5682 12.6199 36.9162C12.7548 37.2642 12.8223 37.6927 12.8223 38.2017V38.5568H8.61772V37.8324H11.97C11.97 37.5246 11.9084 37.25 11.7853 37.0085C11.6646 36.767 11.4918 36.5765 11.2669 36.4368C11.0443 36.2971 10.7815 36.2273 10.4785 36.2273C10.1447 36.2273 9.85588 36.3101 9.61204 36.4759C9.37056 36.6392 9.18472 36.8523 9.05451 37.1151C8.9243 37.3778 8.8592 37.6596 8.8592 37.9602V38.4432C8.8592 38.8551 8.93022 39.2043 9.07227 39.4908C9.21668 39.7749 9.41673 39.9915 9.67241 40.1406C9.92809 40.2874 10.2252 40.3608 10.5637 40.3608C10.7839 40.3608 10.9828 40.33 11.1603 40.2685C11.3403 40.2045 11.4953 40.1098 11.6255 39.9844C11.7557 39.8565 11.8564 39.6979 11.9274 39.5085L12.737 39.7358C12.6518 40.0104 12.5086 40.2519 12.3074 40.4602C12.1061 40.6662 11.8575 40.8272 11.5616 40.9432C11.2657 41.0568 10.9331 41.1136 10.5637 41.1136ZM17.7477 37.8892V38.6705H14.7363V37.8892H17.7477ZM14.9352 35.5455V41H14.0971V35.5455H14.9352ZM18.3869 35.5455V41H17.5488V35.5455H18.3869ZM20.6419 37.5199H22.2044C22.8436 37.5199 23.3324 37.6821 23.671 38.0064C24.0095 38.3307 24.1788 38.7415 24.1788 39.2386C24.1788 39.5653 24.103 39.8625 23.9515 40.13C23.8 40.3951 23.5775 40.607 23.2839 40.7656C22.9904 40.9219 22.6305 41 22.2044 41H19.9174V35.5455H20.7555V40.2188H22.2044C22.5358 40.2188 22.8081 40.1312 23.0211 39.956C23.2342 39.7808 23.3407 39.5559 23.3407 39.2812C23.3407 38.9924 23.2342 38.7569 23.0211 38.5746C22.8081 38.3923 22.5358 38.3011 22.2044 38.3011H20.6419V37.5199ZM28.821 35.5455V36.3267H26.2926V41H25.4545V35.5455H28.821ZM30.8825 39.7642L33.5103 35.5455H34.4762V41H33.6381V36.7812L31.0245 41H30.0444V35.5455H30.8825V39.7642ZM38.8237 41V35.5455H43.1135V41H42.2754V36.3267H39.6618V41H38.8237ZM46.8599 41.1136C46.3675 41.1136 45.9354 40.9964 45.5637 40.7621C45.1944 40.5277 44.9056 40.1998 44.6973 39.7784C44.4913 39.357 44.3883 38.8646 44.3883 38.3011C44.3883 37.733 44.4913 37.237 44.6973 36.8132C44.9056 36.3894 45.1944 36.0604 45.5637 35.826C45.9354 35.5916 46.3675 35.4744 46.8599 35.4744C47.3523 35.4744 47.7832 35.5916 48.1525 35.826C48.5242 36.0604 48.813 36.3894 49.019 36.8132C49.2273 37.237 49.3315 37.733 49.3315 38.3011C49.3315 38.8646 49.2273 39.357 49.019 39.7784C48.813 40.1998 48.5242 40.5277 48.1525 40.7621C47.7832 40.9964 47.3523 41.1136 46.8599 41.1136ZM46.8599 40.3608C47.234 40.3608 47.5417 40.2649 47.7832 40.0732C48.0247 39.8814 48.2034 39.6293 48.3194 39.3168C48.4354 39.0043 48.4934 38.6657 48.4934 38.3011C48.4934 37.9366 48.4354 37.5968 48.3194 37.282C48.2034 36.9671 48.0247 36.7126 47.7832 36.5185C47.5417 36.3243 47.234 36.2273 46.8599 36.2273C46.4859 36.2273 46.1781 36.3243 45.9366 36.5185C45.6951 36.7126 45.5164 36.9671 45.4004 37.282C45.2844 37.5968 45.2264 37.9366 45.2264 38.3011C45.2264 38.6657 45.2844 39.0043 45.4004 39.3168C45.5164 39.6293 45.6951 39.8814 45.9366 40.0732C46.1781 40.2649 46.4859 40.3608 46.8599 40.3608ZM50.0284 42.5625V40.2188H50.483C50.5942 40.1027 50.6901 39.9773 50.7706 39.8423C50.8511 39.7074 50.9209 39.5476 50.9801 39.3629C51.0417 39.1759 51.0938 38.9486 51.1364 38.6811C51.179 38.4112 51.2169 38.0857 51.25 37.7045L51.4347 35.5455H54.9006V40.2188H55.7386V42.5625H54.9006V41H50.8665V42.5625H50.0284ZM51.4347 40.2188H54.0625V36.3267H52.2159L52.0739 37.7045C52.0147 38.2751 51.9413 38.7734 51.8537 39.1996C51.7661 39.6257 51.6264 39.9654 51.4347 40.2188ZM59.3226 39.608H60.2175C60.2364 39.8542 60.3477 40.0412 60.5513 40.169C60.7573 40.2969 61.0248 40.3608 61.3539 40.3608C61.69 40.3608 61.9777 40.2921 62.2168 40.1548C62.4559 40.0152 62.5755 39.7902 62.5755 39.4801C62.5755 39.2978 62.5305 39.1392 62.4405 39.0043C62.3506 38.867 62.2239 38.7604 62.0605 38.6847C61.8972 38.6089 61.7042 38.571 61.4817 38.571H60.5442V37.8182H61.4817C61.8155 37.8182 62.0617 37.7424 62.2203 37.5909C62.3813 37.4394 62.4618 37.25 62.4618 37.0227C62.4618 36.7789 62.3754 36.5836 62.2026 36.4368C62.0298 36.2876 61.7847 36.2131 61.4675 36.2131C61.1479 36.2131 60.8816 36.2853 60.6685 36.4297C60.4554 36.5717 60.343 36.7552 60.3311 36.9801H59.4505C59.4599 36.6866 59.5499 36.4273 59.7203 36.2024C59.8908 35.9751 60.1228 35.7976 60.4164 35.6697C60.7099 35.5395 61.0461 35.4744 61.4249 35.4744C61.8084 35.4744 62.141 35.5419 62.4228 35.6768C62.7069 35.8094 62.9258 35.9905 63.0797 36.2202C63.236 36.4474 63.3141 36.7055 63.3141 36.9943C63.3141 37.3021 63.2277 37.5507 63.0549 37.7401C62.882 37.9295 62.6654 38.0644 62.405 38.1449V38.2017C62.611 38.2159 62.7897 38.2822 62.9412 38.4006C63.0951 38.5166 63.2147 38.6693 63.2999 38.8587C63.3851 39.0457 63.4277 39.2528 63.4277 39.4801C63.4277 39.8116 63.339 40.1004 63.1614 40.3466C62.9838 40.5904 62.74 40.7798 62.4299 40.9148C62.1197 41.0473 61.7658 41.1136 61.3681 41.1136C60.9822 41.1136 60.6365 41.0509 60.3311 40.9254C60.0257 40.7976 59.7831 40.6212 59.6032 40.3963C59.4256 40.169 59.3321 39.9062 59.3226 39.608ZM66.21 41.1278C65.8644 41.1278 65.5507 41.0627 65.269 40.9325C64.9873 40.8 64.7636 40.6094 64.5978 40.3608C64.4321 40.1098 64.3493 39.8068 64.3493 39.4517C64.3493 39.1392 64.4108 38.8859 64.5339 38.6918C64.657 38.4953 64.8216 38.3414 65.0275 38.2301C65.2335 38.1188 65.4608 38.036 65.7093 37.9815C65.9603 37.9247 66.2124 37.8797 66.4657 37.8466C66.7972 37.804 67.0659 37.772 67.2718 37.7507C67.4802 37.727 67.6317 37.688 67.7264 37.6335C67.8234 37.5791 67.872 37.4844 67.872 37.3494V37.321C67.872 36.9706 67.7761 36.6984 67.5843 36.5043C67.3949 36.3101 67.1073 36.2131 66.7214 36.2131C66.3213 36.2131 66.0076 36.3007 65.7804 36.4759C65.5531 36.651 65.3933 36.8381 65.301 37.0369L64.5055 36.7528C64.6475 36.4214 64.8369 36.1634 65.0737 35.9787C65.3128 35.7917 65.5732 35.6615 65.8549 35.5881C66.139 35.5123 66.4184 35.4744 66.693 35.4744C66.8682 35.4744 67.0694 35.4957 67.2967 35.5384C67.5263 35.5786 67.7477 35.6626 67.9608 35.7905C68.1762 35.9183 68.3549 36.1113 68.497 36.3693C68.639 36.6274 68.71 36.973 68.71 37.4062V41H67.872V40.2614H67.8294C67.7725 40.3797 67.6779 40.5064 67.5453 40.6413C67.4127 40.7763 67.2363 40.8911 67.0162 40.9858C66.796 41.0805 66.5273 41.1278 66.21 41.1278ZM66.3379 40.375C66.6693 40.375 66.9487 40.3099 67.176 40.1797C67.4056 40.0495 67.5784 39.8814 67.6944 39.6754C67.8128 39.4695 67.872 39.2528 67.872 39.0256V38.2585C67.8365 38.3011 67.7583 38.3402 67.6376 38.3757C67.5192 38.4089 67.3819 38.4384 67.2257 38.4645C67.0718 38.4882 66.9215 38.5095 66.7747 38.5284C66.6303 38.545 66.5131 38.5592 66.4231 38.571C66.2053 38.5994 66.0017 38.6456 65.8123 38.7095C65.6253 38.7711 65.4738 38.8646 65.3578 38.9901C65.2441 39.1132 65.1873 39.2812 65.1873 39.4943C65.1873 39.7855 65.295 40.0057 65.5105 40.1548C65.7283 40.3016 66.0041 40.375 66.3379 40.375ZM69.7567 41V40.2188H69.9556C70.119 40.2188 70.2551 40.1868 70.364 40.1229C70.4729 40.0566 70.5605 39.9418 70.6268 39.7784C70.6954 39.6127 70.7475 39.383 70.783 39.0895C70.8209 38.7936 70.8481 38.4171 70.8647 37.9602L70.9641 35.5455H74.6005V41H73.7624V36.3267H71.7596L71.6744 38.2727C71.6554 38.7202 71.6152 39.1143 71.5536 39.4553C71.4944 39.7938 71.4033 40.0779 71.2802 40.3075C71.1594 40.5372 70.9985 40.71 70.7972 40.826C70.596 40.942 70.3439 41 70.0408 41H69.7567ZM78.354 41.1136C77.8616 41.1136 77.4296 40.9964 77.0579 40.7621C76.6886 40.5277 76.3997 40.1998 76.1914 39.7784C75.9854 39.357 75.8825 38.8646 75.8825 38.3011C75.8825 37.733 75.9854 37.237 76.1914 36.8132C76.3997 36.3894 76.6886 36.0604 77.0579 35.826C77.4296 35.5916 77.8616 35.4744 78.354 35.4744C78.8465 35.4744 79.2773 35.5916 79.6467 35.826C80.0183 36.0604 80.3072 36.3894 80.5131 36.8132C80.7215 37.237 80.8256 37.733 80.8256 38.3011C80.8256 38.8646 80.7215 39.357 80.5131 39.7784C80.3072 40.1998 80.0183 40.5277 79.6467 40.7621C79.2773 40.9964 78.8465 41.1136 78.354 41.1136ZM78.354 40.3608C78.7281 40.3608 79.0359 40.2649 79.2773 40.0732C79.5188 39.8814 79.6976 39.6293 79.8136 39.3168C79.9296 39.0043 79.9876 38.6657 79.9876 38.3011C79.9876 37.9366 79.9296 37.5968 79.8136 37.282C79.6976 36.9671 79.5188 36.7126 79.2773 36.5185C79.0359 36.3243 78.7281 36.2273 78.354 36.2273C77.98 36.2273 77.6722 36.3243 77.4308 36.5185C77.1893 36.7126 77.0105 36.9671 76.8945 37.282C76.7785 37.5968 76.7205 37.9366 76.7205 38.3011C76.7205 38.6657 76.7785 39.0043 76.8945 39.3168C77.0105 39.6293 77.1893 39.8814 77.4308 40.0732C77.6722 40.2649 77.98 40.3608 78.354 40.3608ZM85.4714 35.5455V36.3267H82.943V41H82.1049V35.5455H85.4714ZM95.0613 33.7273V41H94.1806V34.5085H90.5158V41H89.6351V33.7273H95.0613ZM96.44 34.5085V33.7273H101.895V34.5085H99.6076V41H98.7269V34.5085H96.44ZM108.803 36H107.923C107.871 35.7467 107.779 35.5241 107.649 35.3324C107.521 35.1406 107.365 34.9796 107.18 34.8494C106.998 34.7169 106.796 34.6174 106.573 34.5511C106.351 34.4848 106.119 34.4517 105.877 34.4517C105.437 34.4517 105.038 34.563 104.68 34.7855C104.325 35.008 104.042 35.3359 103.832 35.7692C103.623 36.2024 103.519 36.7339 103.519 37.3636C103.519 37.9934 103.623 38.5249 103.832 38.9581C104.042 39.3913 104.325 39.7192 104.68 39.9418C105.038 40.1643 105.437 40.2756 105.877 40.2756C106.119 40.2756 106.351 40.2424 106.573 40.1761C106.796 40.1098 106.998 40.0116 107.18 39.8814C107.365 39.7488 107.521 39.5866 107.649 39.3949C107.779 39.2008 107.871 38.9782 107.923 38.7273H108.803C108.737 39.099 108.616 39.4316 108.441 39.7251C108.266 40.0187 108.048 40.2685 107.788 40.4744C107.527 40.678 107.235 40.8331 106.911 40.9396C106.589 41.0462 106.244 41.0994 105.877 41.0994C105.257 41.0994 104.705 40.9479 104.222 40.6449C103.739 40.3419 103.359 39.911 103.082 39.3523C102.805 38.7936 102.667 38.1307 102.667 37.3636C102.667 36.5966 102.805 35.9337 103.082 35.375C103.359 34.8163 103.739 34.3854 104.222 34.0824C104.705 33.7794 105.257 33.6278 105.877 33.6278C106.244 33.6278 106.589 33.6811 106.911 33.7876C107.235 33.8942 107.527 34.0504 107.788 34.2564C108.048 34.46 108.266 34.7086 108.441 35.0021C108.616 35.2933 108.737 35.6259 108.803 36ZM111.363 40.0057L111.306 40.3892C111.266 40.6591 111.204 40.9479 111.121 41.2557C111.041 41.5634 110.957 41.8535 110.869 42.1257C110.782 42.398 110.709 42.6146 110.653 42.7756H110.013C110.044 42.6241 110.084 42.424 110.134 42.1754C110.184 41.9268 110.233 41.6487 110.283 41.3409C110.335 41.0355 110.378 40.723 110.411 40.4034L110.454 40.0057H111.363ZM117.333 41.1278C116.987 41.1278 116.674 41.0627 116.392 40.9325C116.11 40.8 115.887 40.6094 115.721 40.3608C115.555 40.1098 115.472 39.8068 115.472 39.4517C115.472 39.1392 115.534 38.8859 115.657 38.6918C115.78 38.4953 115.945 38.3414 116.151 38.2301C116.357 38.1188 116.584 38.036 116.832 37.9815C117.083 37.9247 117.335 37.8797 117.589 37.8466C117.92 37.804 118.189 37.772 118.395 37.7507C118.603 37.727 118.755 37.688 118.849 37.6335C118.946 37.5791 118.995 37.4844 118.995 37.3494V37.321C118.995 36.9706 118.899 36.6984 118.707 36.5043C118.518 36.3101 118.23 36.2131 117.844 36.2131C117.444 36.2131 117.131 36.3007 116.903 36.4759C116.676 36.651 116.516 36.8381 116.424 37.0369L115.629 36.7528C115.771 36.4214 115.96 36.1634 116.197 35.9787C116.436 35.7917 116.696 35.6615 116.978 35.5881C117.262 35.5123 117.541 35.4744 117.816 35.4744C117.991 35.4744 118.192 35.4957 118.42 35.5384C118.649 35.5786 118.871 35.6626 119.084 35.7905C119.299 35.9183 119.478 36.1113 119.62 36.3693C119.762 36.6274 119.833 36.973 119.833 37.4062V41H118.995V40.2614H118.952C118.896 40.3797 118.801 40.5064 118.668 40.6413C118.536 40.7763 118.359 40.8911 118.139 40.9858C117.919 41.0805 117.65 41.1278 117.333 41.1278ZM117.461 40.375C117.792 40.375 118.072 40.3099 118.299 40.1797C118.529 40.0495 118.701 39.8814 118.817 39.6754C118.936 39.4695 118.995 39.2528 118.995 39.0256V38.2585C118.96 38.3011 118.881 38.3402 118.761 38.3757C118.642 38.4089 118.505 38.4384 118.349 38.4645C118.195 38.4882 118.045 38.5095 117.898 38.5284C117.753 38.545 117.636 38.5592 117.546 38.571C117.328 38.5994 117.125 38.6456 116.935 38.7095C116.748 38.7711 116.597 38.8646 116.481 38.9901C116.367 39.1132 116.31 39.2812 116.31 39.4943C116.31 39.7855 116.418 40.0057 116.634 40.1548C116.851 40.3016 117.127 40.375 117.461 40.375ZM121.363 41V35.5455H123.593C124.18 35.5455 124.646 35.678 124.992 35.9432C125.338 36.2083 125.51 36.5587 125.51 36.9943C125.51 37.3258 125.412 37.5826 125.216 37.7649C125.019 37.9448 124.767 38.0668 124.459 38.1307C124.661 38.1591 124.856 38.2301 125.045 38.3438C125.237 38.4574 125.396 38.6136 125.521 38.8125C125.647 39.009 125.709 39.2505 125.709 39.5369C125.709 39.8163 125.638 40.0661 125.496 40.2862C125.354 40.5064 125.151 40.6804 124.885 40.8082C124.62 40.9361 124.303 41 123.934 41H121.363ZM122.158 40.233H123.934C124.223 40.233 124.449 40.1643 124.612 40.027C124.775 39.8897 124.857 39.7027 124.857 39.4659C124.857 39.1842 124.775 38.9628 124.612 38.8018C124.449 38.6385 124.223 38.5568 123.934 38.5568H122.158V40.233ZM122.158 37.8324H123.593C123.818 37.8324 124.011 37.8016 124.172 37.7401C124.333 37.6761 124.456 37.5862 124.541 37.4702C124.629 37.3518 124.672 37.2121 124.672 37.0511C124.672 36.8215 124.577 36.6416 124.385 36.5114C124.193 36.3788 123.929 36.3125 123.593 36.3125H122.158V37.8324ZM126.665 36.3267V35.5455H131.097V36.3267H129.308V41H128.469V36.3267H126.665ZM134.252 41.1136C133.76 41.1136 133.328 40.9964 132.956 40.7621C132.587 40.5277 132.298 40.1998 132.09 39.7784C131.884 39.357 131.781 38.8646 131.781 38.3011C131.781 37.733 131.884 37.237 132.09 36.8132C132.298 36.3894 132.587 36.0604 132.956 35.826C133.328 35.5916 133.76 35.4744 134.252 35.4744C134.745 35.4744 135.176 35.5916 135.545 35.826C135.917 36.0604 136.206 36.3894 136.412 36.8132C136.62 37.237 136.724 37.733 136.724 38.3011C136.724 38.8646 136.62 39.357 136.412 39.7784C136.206 40.1998 135.917 40.5277 135.545 40.7621C135.176 40.9964 134.745 41.1136 134.252 41.1136ZM134.252 40.3608C134.627 40.3608 134.934 40.2649 135.176 40.0732C135.417 39.8814 135.596 39.6293 135.712 39.3168C135.828 39.0043 135.886 38.6657 135.886 38.3011C135.886 37.9366 135.828 37.5968 135.712 37.282C135.596 36.9671 135.417 36.7126 135.176 36.5185C134.934 36.3243 134.627 36.2273 134.252 36.2273C133.878 36.2273 133.571 36.3243 133.329 36.5185C133.088 36.7126 132.909 36.9671 132.793 37.282C132.677 37.5968 132.619 37.9366 132.619 38.3011C132.619 38.6657 132.677 39.0043 132.793 39.3168C132.909 39.6293 133.088 39.8814 133.329 40.0732C133.571 40.2649 133.878 40.3608 134.252 40.3608Z" fill="#8D8D8D"/>
</svg>
