<svg width="32" height="32" viewBox="0 0 32 32" fill="none" xmlns="http://www.w3.org/2000/svg">
<path d="M24.9406 29.7756C24.8202 29.7759 24.6999 29.7688 24.5802 29.7546C19.0883 29.1557 13.9296 26.823 9.85337 23.094L8.93224 22.1724V22.1726C5.19056 18.0918 2.84799 12.9239 2.24599 7.42012C2.16689 6.73531 2.31777 6.04387 2.67446 5.45406C3.03115 4.86421 3.57365 4.40962 4.21671 4.16156L8.80802 2.37906C9.33098 2.17715 9.90959 2.17227 10.4357 2.36539C10.9621 2.55825 11.4001 2.93619 11.6684 3.42839L14.8962 9.35538C15.134 9.7963 15.2226 10.3026 15.1487 10.7983C15.0749 11.2939 14.8425 11.7521 14.4863 12.1046L11.9523 14.5924C12.7253 15.6811 13.5722 16.7153 14.4868 17.6876C15.4018 18.5446 16.3772 19.3344 17.4052 20.0516L19.895 17.5148C20.2468 17.1583 20.7045 16.9254 21.1999 16.8512C21.6953 16.7772 22.2012 16.8656 22.6418 17.1034L28.5722 20.3321C29.0634 20.6007 29.4404 21.0385 29.6335 21.5641C29.8263 22.0897 29.8219 22.6673 29.6213 23.1901L27.8378 27.7843H27.8376C27.61 28.3681 27.2121 28.8703 26.6955 29.2253C26.1789 29.5803 25.5678 29.7719 24.9409 29.7753L24.9406 29.7756ZM11.2356 21.6931C14.9993 25.1145 19.7518 27.2529 24.8087 27.8001C25.0595 27.8245 25.3114 27.7669 25.5267 27.636C25.7418 27.5049 25.9088 27.3076 26.0023 27.0735L27.7857 22.4792C27.8441 22.321 27.7787 22.1436 27.6314 22.0613L21.7025 18.8325C21.569 18.7625 21.4054 18.7874 21.2989 18.894L18.4064 21.8404C18.1976 22.0542 17.9205 22.1885 17.6232 22.2195C17.3261 22.2505 17.0272 22.1765 16.7787 22.0103C15.4728 21.1358 14.2409 20.1555 13.0953 19.0796C11.9639 17.8806 10.9288 16.5945 9.99963 15.2329C9.82971 14.9839 9.75256 14.6833 9.7821 14.3833C9.81164 14.0832 9.94568 13.8035 10.161 13.5925L13.1068 10.7002V10.7C13.213 10.5933 13.2372 10.4295 13.1664 10.2964L9.93908 4.36941C9.8568 4.22195 9.6798 4.15603 9.52111 4.21365L4.92786 5.99734C4.69128 6.08767 4.49133 6.25393 4.35975 6.46999C4.22791 6.6863 4.17176 6.94021 4.19983 7.19168C4.74964 12.2649 6.90102 17.0311 10.3417 20.7998L11.2356 21.6931Z" fill="url(#paint0_linear_1_1001)"/>
<defs>
<linearGradient id="paint0_linear_1_1001" x1="16.0002" y1="2.22401" x2="16.0002" y2="29.7756" gradientUnits="userSpaceOnUse">
<stop stop-color="#56ABEE"/>
<stop offset="1" stop-color="#3994DB"/>
</linearGradient>
</defs>
</svg>
