<svg width="9" height="13" viewBox="0 0 9 13" fill="none" xmlns="http://www.w3.org/2000/svg">
<path d="M4.70709 12.5C4.6255 12.5 4.54856 12.4607 4.50065 12.3945C4.33851 12.1707 0.537109 6.88965 0.537109 4.67023C0.537109 2.37075 2.40776 0.5 4.70734 0.5C7.00682 0.5 8.87756 2.37065 8.87756 4.67023C8.87756 6.88963 5.07603 12.1706 4.91403 12.3945C4.86592 12.4608 4.78889 12.5 4.70739 12.5H4.70709ZM4.70709 1.01014C2.68911 1.01014 1.04691 2.65185 1.04691 4.67032C1.04691 6.44712 3.90511 10.658 4.70709 11.8037C5.50859 10.6575 8.36728 6.44601 8.36728 4.67032C8.36718 2.65224 6.725 1.01014 4.70709 1.01014Z" fill="white"/>
<path d="M4.70713 6.58651C3.65071 6.58651 2.79114 5.72684 2.79114 4.67051C2.79114 3.61409 3.65081 2.75452 4.70713 2.75452C5.76356 2.75452 6.62313 3.61419 6.62313 4.67051C6.62313 5.72684 5.76346 6.58651 4.70713 6.58651ZM4.70713 3.26466C3.93162 3.26466 3.30099 3.89539 3.30099 4.67081C3.30099 5.44632 3.93172 6.07695 4.70713 6.07695C5.48265 6.07695 6.11328 5.44622 6.11328 4.67081C6.11328 3.89539 5.48255 3.26466 4.70713 3.26466Z" fill="white"/>
</svg>
