<svg width="14" height="20" viewBox="0 0 14 20" fill="none" xmlns="http://www.w3.org/2000/svg">
<path d="M6.70664 19.2998C6.57541 19.2998 6.45167 19.2366 6.37461 19.1301C6.11384 18.7701 0 10.2766 0 6.70703C0 3.00875 3.00859 0 6.70703 0C10.4053 0 13.4141 3.00859 13.4141 6.70703C13.4141 10.2765 7.3 18.7699 7.03945 19.1301C6.96209 19.2367 6.83819 19.2998 6.70712 19.2998H6.70664ZM6.70664 0.820461C3.46109 0.820461 0.819922 3.46085 0.819922 6.70718C0.819922 9.56484 5.4168 16.3373 6.70664 18.1798C7.9957 16.3364 12.5934 9.56304 12.5934 6.70718C12.5932 3.46148 9.95207 0.820461 6.70664 0.820461Z" fill="#424242"/>
<path d="M6.70665 9.78884C5.00758 9.78884 3.62512 8.40622 3.62512 6.70732C3.62512 5.00825 5.00774 3.62579 6.70665 3.62579C8.40571 3.62579 9.78817 5.00841 9.78817 6.70732C9.78817 8.40622 8.40555 9.78884 6.70665 9.78884ZM6.70665 4.44626C5.45938 4.44626 4.44512 5.46068 4.44512 6.70779C4.44512 7.95505 5.45954 8.96931 6.70665 8.96931C7.95391 8.96931 8.96817 7.9549 8.96817 6.70779C8.96817 5.46068 7.95375 4.44626 6.70665 4.44626Z" fill="#424242"/>
</svg>
