<svg width="33" height="32" viewBox="0 0 33 32" fill="none" xmlns="http://www.w3.org/2000/svg">
<g clip-path="url(#clip0_1_1117)">
<path d="M0.414062 32L2.67413 23.7827C1.27951 21.3773 0.546692 18.6507 0.548032 15.8547C0.552051 7.11333 7.69933 0 16.481 0C20.7426 0.00133333 24.743 1.65333 27.7519 4.65067C30.7595 7.648 32.4154 11.632 32.4141 15.8693C32.41 24.612 25.2628 31.7253 16.481 31.7253C13.8151 31.724 11.1879 31.0587 8.86085 29.7947L0.414062 32ZM9.25204 26.924C11.4974 28.2507 13.6409 29.0453 16.4757 29.0467C23.7744 29.0467 29.7199 23.1347 29.724 15.8667C29.7266 8.584 23.8092 2.68 16.4864 2.67733C9.18238 2.67733 3.24082 8.58933 3.23814 15.856C3.2368 18.8227 4.11029 21.044 5.57725 23.368L4.2389 28.232L9.25204 26.924ZM24.5072 19.6387C24.408 19.4733 24.1428 19.3747 23.7435 19.176C23.3457 18.9773 21.3884 18.0187 21.0226 17.8867C20.6582 17.7547 20.393 17.688 20.1264 18.0853C19.8611 18.4813 19.0975 19.3747 18.8657 19.6387C18.6339 19.9027 18.4008 19.936 18.0029 19.7373C17.6051 19.5387 16.3216 19.1213 14.8011 17.7707C13.6181 16.72 12.8183 15.4227 12.5865 15.0253C12.3548 14.6293 12.5624 14.4147 12.7607 14.2173C12.9402 14.04 13.1586 13.7547 13.3582 13.5227C13.5605 13.2933 13.6262 13.128 13.7601 12.8627C13.8928 12.5987 13.8271 12.3667 13.7266 12.168C13.6262 11.9707 12.8304 10.02 12.4995 9.22667C12.1753 8.45467 11.847 8.55867 11.6032 8.54667L10.8396 8.53333C10.5743 8.53333 10.1429 8.632 9.77854 9.02933C9.41415 9.42667 8.38526 10.384 8.38526 12.3347C8.38526 14.2853 9.81204 16.1693 10.0103 16.4333C10.2099 16.6973 12.817 20.7 16.8106 22.416C17.7605 22.824 18.5026 23.068 19.0801 23.2507C20.0339 23.552 20.902 23.5093 21.588 23.408C22.3529 23.2947 23.9432 22.4493 24.2754 21.524C24.6076 20.5973 24.6076 19.804 24.5072 19.6387Z" fill="#424242"/>
</g>
<defs>
<clipPath id="clip0_1_1117">
<rect width="32" height="32" fill="white" transform="translate(0.414062)"/>
</clipPath>
</defs>
</svg>
